solid Staff and Walking Stick Pica Tinny v1.001
facet normal -1.000000 0.000000 0.000000
outer loop
vertex -24.400000 13.836997 0.000000
vertex -24.400000 13.836997 20.000000
vertex -24.400000 15.000751 0.000000
endloop
endfacet
facet normal -1.000000 0.000000 0.000000
outer loop
vertex -24.400000 15.000751 0.000000
vertex -24.400000 13.836997 20.000000
vertex -24.400000 15.000751 20.000000
endloop
endfacet
facet normal 1.000000 0.000000 0.000000
outer loop
vertex -25.600000 13.836997 20.000000
vertex -25.600000 13.836997 0.000000
vertex -25.600000 15.000751 20.000000
endloop
endfacet
facet normal 1.000000 0.000000 0.000000
outer loop
vertex -25.600000 15.000751 20.000000
vertex -25.600000 13.836997 0.000000
vertex -25.600000 15.000751 0.000000
endloop
endfacet
facet normal 0.000000 0.000000 1.000000
outer loop
vertex -24.400000 13.836997 20.000000
vertex -22.848169 13.681817 20.000000
vertex -24.400000 15.000751 20.000000
endloop
endfacet
facet normal 0.000000 0.000000 1.000000
outer loop
vertex -24.400000 15.000751 20.000000
vertex -22.848169 13.681817 20.000000
vertex -21.323624 13.353155 20.000000
endloop
endfacet
facet normal 0.000000 0.000000 1.000000
outer loop
vertex -24.400000 15.000751 20.000000
vertex -21.323624 13.353155 20.000000
vertex -17.000000 15.000751 20.000000
endloop
endfacet
facet normal 0.000000 0.000000 1.000000
outer loop
vertex -17.000000 15.000751 20.000000
vertex -21.323624 13.353155 20.000000
vertex -19.845694 12.855179 20.000000
endloop
endfacet
facet normal 0.000000 0.000000 1.000000
outer loop
vertex -17.000000 15.000751 20.000000
vertex -19.845694 12.855179 20.000000
vertex -18.433117 12.194201 20.000000
endloop
endfacet
facet normal 0.000000 0.000000 1.000000
outer loop
vertex -17.000000 15.000751 20.000000
vertex -18.433117 12.194201 20.000000
vertex -17.000000 12.688578 20.000000
endloop
endfacet
facet normal 0.000000 0.000000 1.000000
outer loop
vertex -17.000000 12.688578 20.000000
vertex -18.433117 12.194201 20.000000
vertex -17.103809 11.378606 20.000000
endloop
endfacet
facet normal 0.000000 0.000000 1.000000
outer loop
vertex -17.000000 12.688578 20.000000
vertex -17.103809 11.378606 20.000000
vertex -15.700869 11.769713 20.000000
endloop
endfacet
facet normal 0.000000 0.000000 1.000000
outer loop
vertex -15.700869 11.769713 20.000000
vertex -17.103809 11.378606 20.000000
vertex -15.874621 10.418732 20.000000
endloop
endfacet
facet normal 0.000000 0.000000 1.000000
outer loop
vertex -15.700869 11.769713 20.000000
vertex -15.874621 10.418732 20.000000
vertex -14.506386 10.718398 20.000000
endloop
endfacet
facet normal 0.000000 0.000000 1.000000
outer loop
vertex -14.506386 10.718398 20.000000
vertex -15.874621 10.418732 20.000000
vertex -14.761142 9.326751 20.000000
endloop
endfacet
facet normal 0.000000 0.000000 1.000000
outer loop
vertex -14.506386 10.718398 20.000000
vertex -14.761142 9.326751 20.000000
vertex -13.429994 9.546463 20.000000
endloop
endfacet
facet normal 0.000000 0.000000 1.000000
outer loop
vertex -13.429994 9.546463 20.000000
vertex -14.761142 9.326751 20.000000
vertex -13.777488 8.116509 20.000000
endloop
endfacet
facet normal 0.000000 0.000000 1.000000
outer loop
vertex -13.429994 9.546463 20.000000
vertex -13.777488 8.116509 20.000000
vertex -12.483806 8.267096 20.000000
endloop
endfacet
facet normal 0.000000 0.000000 1.000000
outer loop
vertex -12.483806 8.267096 20.000000
vertex -13.777488 8.116509 20.000000
vertex -12.936133 6.803353 20.000000
endloop
endfacet
facet normal 0.000000 0.000000 1.000000
outer loop
vertex -12.483806 8.267096 20.000000
vertex -12.936133 6.803353 20.000000
vertex -11.678469 6.894694 20.000000
endloop
endfacet
facet normal 0.000000 0.000000 1.000000
outer loop
vertex -11.678469 6.894694 20.000000
vertex -12.936133 6.803353 20.000000
vertex -12.247745 5.403932 20.000000
endloop
endfacet
facet normal 0.000000 0.000000 1.000000
outer loop
vertex -11.678469 6.894694 20.000000
vertex -12.247745 5.403932 20.000000
vertex -11.023047 5.444703 20.000000
endloop
endfacet
facet normal 0.000000 0.000000 1.000000
outer loop
vertex -11.023047 5.444703 20.000000
vertex -12.247745 5.403932 20.000000
vertex -11.721051 3.935990 20.000000
endloop
endfacet
facet normal 0.000000 0.000000 1.000000
outer loop
vertex -11.023047 5.444703 20.000000
vertex -11.721051 3.935990 20.000000
vertex -10.524916 3.933439 20.000000
endloop
endfacet
facet normal -0.000002 0.000000 1.000000
outer loop
vertex -10.524916 3.933439 20.000000
vertex -11.721051 3.935990 20.000000
vertex -11.362731 2.418141 20.000000
endloop
endfacet
facet normal 0.000001 0.000000 1.000000
outer loop
vertex -10.524916 3.933439 20.000000
vertex -11.362731 2.418141 20.000000
vertex -10.189681 2.377910 20.000000
endloop
endfacet
facet normal 0.000000 0.000000 1.000000
outer loop
vertex -10.189681 2.377910 20.000000
vertex -11.362731 2.418141 20.000000
vertex -11.177329 0.869630 20.000000
endloop
endfacet
facet normal -0.000001 0.000000 1.000000
outer loop
vertex -10.189681 2.377910 20.000000
vertex -11.177329 0.869630 20.000000
vertex -10.021115 0.795621 20.000000
endloop
endfacet
facet normal -0.000004 0.000000 1.000000
outer loop
vertex -10.021115 0.795621 20.000000
vertex -11.177329 0.869630 20.000000
vertex -11.167193 -0.689907 20.000000
endloop
endfacet
facet normal 0.000000 0.000000 1.000000
outer loop
vertex -10.021115 0.795621 20.000000
vertex -11.167193 -0.689907 20.000000
vertex -10.021115 -0.795621 20.000000
endloop
endfacet
facet normal 0.000004 0.000000 1.000000
outer loop
vertex -10.021115 -0.795621 20.000000
vertex -11.167193 -0.689907 20.000000
vertex -10.189681 -2.377910 20.000000
endloop
endfacet
facet normal -0.000002 0.000000 1.000000
outer loop
vertex -10.189681 -2.377910 20.000000
vertex -11.167193 -0.689907 20.000000
vertex -11.332456 -2.240696 20.000000
endloop
endfacet
facet normal 0.000000 0.000000 1.000000
outer loop
vertex -10.189681 -2.377910 20.000000
vertex -11.332456 -2.240696 20.000000
vertex -10.524916 -3.933439 20.000000
endloop
endfacet
facet normal -0.000002 0.000000 1.000000
outer loop
vertex -10.524916 -3.933439 20.000000
vertex -11.332456 -2.240696 20.000000
vertex -11.671018 -3.763074 20.000000
endloop
endfacet
facet normal 0.000000 0.000000 1.000000
outer loop
vertex -10.524916 -3.933439 20.000000
vertex -11.671018 -3.763074 20.000000
vertex -11.023047 -5.444703 20.000000
endloop
endfacet
facet normal -0.000002 0.000000 1.000000
outer loop
vertex -11.023047 -5.444703 20.000000
vertex -11.671018 -3.763074 20.000000
vertex -12.178588 -5.237738 20.000000
endloop
endfacet
facet normal 0.000000 0.000000 1.000000
outer loop
vertex -11.023047 -5.444703 20.000000
vertex -12.178588 -5.237738 20.000000
vertex -11.678469 -6.894694 20.000000
endloop
endfacet
facet normal 0.000000 0.000000 1.000000
outer loop
vertex -11.678469 -6.894694 20.000000
vertex -12.178588 -5.237738 20.000000
vertex -12.848730 -6.645988 20.000000
endloop
endfacet
facet normal 0.000000 0.000000 1.000000
outer loop
vertex -11.678469 -6.894694 20.000000
vertex -12.848730 -6.645988 20.000000
vertex -12.483806 -8.267096 20.000000
endloop
endfacet
facet normal 0.000000 0.000000 1.000000
outer loop
vertex -12.483806 -8.267096 20.000000
vertex -12.848730 -6.645988 20.000000
vertex -13.672948 -7.969968 20.000000
endloop
endfacet
facet normal 0.000000 0.000000 1.000000
outer loop
vertex -12.483806 -8.267096 20.000000
vertex -13.672948 -7.969968 20.000000
vertex -13.429994 -9.546463 20.000000
endloop
endfacet
facet normal 0.000000 0.000000 1.000000
outer loop
vertex -13.429994 -9.546463 20.000000
vertex -13.672948 -7.969968 20.000000
vertex -14.640789 -9.192892 20.000000
endloop
endfacet
facet normal 0.000000 0.000000 1.000000
outer loop
vertex -13.429994 -9.546463 20.000000
vertex -14.640789 -9.192892 20.000000
vertex -14.506386 -10.718398 20.000000
endloop
endfacet
facet normal 0.000000 0.000000 1.000000
outer loop
vertex -14.506386 -10.718398 20.000000
vertex -14.640789 -9.192892 20.000000
vertex -15.739983 -10.299252 20.000000
endloop
endfacet
facet normal 0.000000 0.000000 1.000000
outer loop
vertex -14.506386 -10.718398 20.000000
vertex -15.739983 -10.299252 20.000000
vertex -15.700869 -11.769713 20.000000
endloop
endfacet
facet normal 0.000000 0.000000 1.000000
outer loop
vertex -15.700869 -11.769713 20.000000
vertex -15.739983 -10.299252 20.000000
vertex -16.956591 -11.275020 20.000000
endloop
endfacet
facet normal 0.000000 0.000000 1.000000
outer loop
vertex -15.700869 -11.769713 20.000000
vertex -16.956591 -11.275020 20.000000
vertex -17.000000 -12.688578 20.000000
endloop
endfacet
facet normal 0.000000 0.000000 1.000000
outer loop
vertex -17.000000 -12.688578 20.000000
vertex -16.956591 -11.275020 20.000000
vertex -18.275188 -12.107824 20.000000
endloop
endfacet
facet normal 0.000000 0.000000 1.000000
outer loop
vertex -17.000000 -12.688578 20.000000
vertex -18.275188 -12.107824 20.000000
vertex -17.000000 -15.000000 20.000000
endloop
endfacet
facet normal 0.000000 0.000000 1.000000
outer loop
vertex -17.000000 -15.000000 20.000000
vertex -18.275188 -12.107824 20.000000
vertex -19.679052 -12.787104 20.000000
endloop
endfacet
facet normal 0.000000 0.000000 1.000000
outer loop
vertex -17.000000 -15.000000 20.000000
vertex -19.679052 -12.787104 20.000000
vertex -21.150387 -13.304247 20.000000
endloop
endfacet
facet normal 0.000000 0.000000 1.000000
outer loop
vertex -21.150387 -13.304247 20.000000
vertex -22.670532 -13.652695 20.000000
vertex -17.000000 -15.000000 20.000000
endloop
endfacet
facet normal 0.000000 0.000000 1.000000
outer loop
vertex -17.000000 -15.000000 20.000000
vertex -22.670532 -13.652695 20.000000
vertex -24.220215 -13.828031 20.000000
endloop
endfacet
facet normal 0.000000 0.000000 1.000000
outer loop
vertex -17.000000 -15.000000 20.000000
vertex -24.220215 -13.828031 20.000000
vertex -25.779785 -13.828031 20.000000
endloop
endfacet
facet normal 0.000000 0.000000 1.000000
outer loop
vertex -17.000000 -15.000000 20.000000
vertex -25.779785 -13.828031 20.000000
vertex -33.000000 -15.000000 20.000000
endloop
endfacet
facet normal 0.000000 0.000000 1.000000
outer loop
vertex -33.000000 -15.000000 20.000000
vertex -25.779785 -13.828031 20.000000
vertex -27.329468 -13.652695 20.000000
endloop
endfacet
facet normal 0.000000 0.000000 1.000000
outer loop
vertex -33.000000 -15.000000 20.000000
vertex -27.329468 -13.652695 20.000000
vertex -28.849613 -13.304247 20.000000
endloop
endfacet
facet normal 0.000000 0.000000 1.000000
outer loop
vertex -28.849613 -13.304247 20.000000
vertex -30.320948 -12.787104 20.000000
vertex -33.000000 -15.000000 20.000000
endloop
endfacet
facet normal 0.000000 0.000000 1.000000
outer loop
vertex -33.000000 -15.000000 20.000000
vertex -30.320948 -12.787104 20.000000
vertex -31.724812 -12.107824 20.000000
endloop
endfacet
facet normal 0.000000 0.000000 1.000000
outer loop
vertex -33.000000 -15.000000 20.000000
vertex -31.724812 -12.107824 20.000000
vertex -33.000000 -12.688578 20.000000
endloop
endfacet
facet normal 0.000000 0.000000 1.000000
outer loop
vertex -33.000000 -12.688578 20.000000
vertex -31.724812 -12.107824 20.000000
vertex -33.043407 -11.275020 20.000000
endloop
endfacet
facet normal 0.000000 0.000000 1.000000
outer loop
vertex -33.000000 -12.688578 20.000000
vertex -33.043407 -11.275020 20.000000
vertex -34.299129 -11.769713 20.000000
endloop
endfacet
facet normal 0.000000 0.000000 1.000000
outer loop
vertex -34.299129 -11.769713 20.000000
vertex -33.043407 -11.275020 20.000000
vertex -34.260017 -10.299252 20.000000
endloop
endfacet
facet normal 0.000000 0.000000 1.000000
outer loop
vertex -34.299129 -11.769713 20.000000
vertex -34.260017 -10.299252 20.000000
vertex -35.493614 -10.718398 20.000000
endloop
endfacet
facet normal 0.000000 0.000000 1.000000
outer loop
vertex -35.493614 -10.718398 20.000000
vertex -34.260017 -10.299252 20.000000
vertex -35.359211 -9.192892 20.000000
endloop
endfacet
facet normal 0.000000 0.000000 1.000000
outer loop
vertex -35.493614 -10.718398 20.000000
vertex -35.359211 -9.192892 20.000000
vertex -36.570007 -9.546463 20.000000
endloop
endfacet
facet normal 0.000000 0.000000 1.000000
outer loop
vertex -36.570007 -9.546463 20.000000
vertex -35.359211 -9.192892 20.000000
vertex -36.327053 -7.969968 20.000000
endloop
endfacet
facet normal 0.000000 0.000000 1.000000
outer loop
vertex -36.570007 -9.546463 20.000000
vertex -36.327053 -7.969968 20.000000
vertex -37.516193 -8.267096 20.000000
endloop
endfacet
facet normal 0.000000 0.000000 1.000000
outer loop
vertex -37.516193 -8.267096 20.000000
vertex -36.327053 -7.969968 20.000000
vertex -37.151268 -6.645988 20.000000
endloop
endfacet
facet normal 0.000000 0.000000 1.000000
outer loop
vertex -37.516193 -8.267096 20.000000
vertex -37.151268 -6.645988 20.000000
vertex -38.321529 -6.894694 20.000000
endloop
endfacet
facet normal 0.000000 0.000000 1.000000
outer loop
vertex -38.321529 -6.894694 20.000000
vertex -37.151268 -6.645988 20.000000
vertex -37.821411 -5.237738 20.000000
endloop
endfacet
facet normal 0.000000 0.000000 1.000000
outer loop
vertex -38.321529 -6.894694 20.000000
vertex -37.821411 -5.237738 20.000000
vertex -38.976952 -5.444703 20.000000
endloop
endfacet
facet normal 0.000002 0.000000 1.000000
outer loop
vertex -38.976952 -5.444703 20.000000
vertex -37.821411 -5.237738 20.000000
vertex -38.328983 -3.763074 20.000000
endloop
endfacet
facet normal -0.000002 0.000000 1.000000
outer loop
vertex -38.976952 -5.444703 20.000000
vertex -38.328983 -3.763074 20.000000
vertex -39.475082 -3.933439 20.000000
endloop
endfacet
facet normal 0.000002 0.000000 1.000000
outer loop
vertex -39.475082 -3.933439 20.000000
vertex -38.328983 -3.763074 20.000000
vertex -38.667545 -2.240696 20.000000
endloop
endfacet
facet normal -0.000002 0.000000 1.000000
outer loop
vertex -39.475082 -3.933439 20.000000
vertex -38.667545 -2.240696 20.000000
vertex -39.810318 -2.377910 20.000000
endloop
endfacet
facet normal 0.000002 0.000000 1.000000
outer loop
vertex -39.810318 -2.377910 20.000000
vertex -38.667545 -2.240696 20.000000
vertex -38.832806 -0.689907 20.000000
endloop
endfacet
facet normal -0.000004 0.000000 1.000000
outer loop
vertex -39.810318 -2.377910 20.000000
vertex -38.832806 -0.689907 20.000000
vertex -39.978886 -0.795621 20.000000
endloop
endfacet
facet normal 0.000000 0.000000 1.000000
outer loop
vertex -39.978886 -0.795621 20.000000
vertex -38.832806 -0.689907 20.000000
vertex -39.978886 0.795621 20.000000
endloop
endfacet
facet normal 0.000004 0.000000 1.000000
outer loop
vertex -39.978886 0.795621 20.000000
vertex -38.832806 -0.689907 20.000000
vertex -38.822670 0.869630 20.000000
endloop
endfacet
facet normal 0.000000 0.000000 1.000000
outer loop
vertex -39.978886 0.795621 20.000000
vertex -38.822670 0.869630 20.000000
vertex -39.810318 2.377910 20.000000
endloop
endfacet
facet normal 0.000000 0.000000 1.000000
outer loop
vertex -39.810318 2.377910 20.000000
vertex -38.822670 0.869630 20.000000
vertex -38.637268 2.418141 20.000000
endloop
endfacet
facet normal 0.000000 0.000000 1.000000
outer loop
vertex -39.810318 2.377910 20.000000
vertex -38.637268 2.418141 20.000000
vertex -39.475082 3.933439 20.000000
endloop
endfacet
facet normal 0.000002 0.000000 1.000000
outer loop
vertex -39.475082 3.933439 20.000000
vertex -38.637268 2.418141 20.000000
vertex -38.278950 3.935990 20.000000
endloop
endfacet
facet normal 0.000000 0.000000 1.000000
outer loop
vertex -39.475082 3.933439 20.000000
vertex -38.278950 3.935990 20.000000
vertex -38.976952 5.444703 20.000000
endloop
endfacet
facet normal 0.000000 0.000000 1.000000
outer loop
vertex -38.976952 5.444703 20.000000
vertex -38.278950 3.935990 20.000000
vertex -37.752254 5.403932 20.000000
endloop
endfacet
facet normal 0.000000 0.000000 1.000000
outer loop
vertex -38.976952 5.444703 20.000000
vertex -37.752254 5.403932 20.000000
vertex -38.321529 6.894694 20.000000
endloop
endfacet
facet normal 0.000000 0.000000 1.000000
outer loop
vertex -38.321529 6.894694 20.000000
vertex -37.752254 5.403932 20.000000
vertex -37.063866 6.803353 20.000000
endloop
endfacet
facet normal 0.000000 0.000000 1.000000
outer loop
vertex -38.321529 6.894694 20.000000
vertex -37.063866 6.803353 20.000000
vertex -37.516193 8.267096 20.000000
endloop
endfacet
facet normal 0.000000 0.000000 1.000000
outer loop
vertex -37.516193 8.267096 20.000000
vertex -37.063866 6.803353 20.000000
vertex -36.222511 8.116509 20.000000
endloop
endfacet
facet normal 0.000000 0.000000 1.000000
outer loop
vertex -37.516193 8.267096 20.000000
vertex -36.222511 8.116509 20.000000
vertex -36.570007 9.546463 20.000000
endloop
endfacet
facet normal 0.000000 0.000000 1.000000
outer loop
vertex -36.570007 9.546463 20.000000
vertex -36.222511 8.116509 20.000000
vertex -35.238857 9.326751 20.000000
endloop
endfacet
facet normal 0.000000 0.000000 1.000000
outer loop
vertex -36.570007 9.546463 20.000000
vertex -35.238857 9.326751 20.000000
vertex -35.493614 10.718398 20.000000
endloop
endfacet
facet normal 0.000000 0.000000 1.000000
outer loop
vertex -35.493614 10.718398 20.000000
vertex -35.238857 9.326751 20.000000
vertex -34.125378 10.418732 20.000000
endloop
endfacet
facet normal 0.000000 0.000000 1.000000
outer loop
vertex -35.493614 10.718398 20.000000
vertex -34.125378 10.418732 20.000000
vertex -34.299129 11.769713 20.000000
endloop
endfacet
facet normal 0.000000 0.000000 1.000000
outer loop
vertex -34.299129 11.769713 20.000000
vertex -34.125378 10.418732 20.000000
vertex -32.896191 11.378606 20.000000
endloop
endfacet
facet normal 0.000000 0.000000 1.000000
outer loop
vertex -34.299129 11.769713 20.000000
vertex -32.896191 11.378606 20.000000
vertex -33.000000 12.688578 20.000000
endloop
endfacet
facet normal 0.000000 0.000000 1.000000
outer loop
vertex -33.000000 12.688578 20.000000
vertex -32.896191 11.378606 20.000000
vertex -31.566883 12.194201 20.000000
endloop
endfacet
facet normal 0.000000 0.000000 1.000000
outer loop
vertex -33.000000 12.688578 20.000000
vertex -31.566883 12.194201 20.000000
vertex -33.000000 15.000751 20.000000
endloop
endfacet
facet normal 0.000000 0.000000 1.000000
outer loop
vertex -33.000000 15.000751 20.000000
vertex -31.566883 12.194201 20.000000
vertex -30.154306 12.855179 20.000000
endloop
endfacet
facet normal 0.000000 0.000000 1.000000
outer loop
vertex -33.000000 15.000751 20.000000
vertex -30.154306 12.855179 20.000000
vertex -28.676376 13.353155 20.000000
endloop
endfacet
facet normal 0.000000 0.000000 1.000000
outer loop
vertex -33.000000 15.000751 20.000000
vertex -28.676376 13.353155 20.000000
vertex -25.600000 15.000751 20.000000
endloop
endfacet
facet normal 0.000000 0.000000 1.000000
outer loop
vertex -25.600000 15.000751 20.000000
vertex -28.676376 13.353155 20.000000
vertex -27.151831 13.681817 20.000000
endloop
endfacet
facet normal 0.000000 0.000000 1.000000
outer loop
vertex -25.600000 15.000751 20.000000
vertex -27.151831 13.681817 20.000000
vertex -25.600000 13.836997 20.000000
endloop
endfacet
facet normal 0.000000 1.000000 0.000000
outer loop
vertex -25.600000 15.000751 0.000000
vertex -33.000000 15.000751 0.000000
vertex -25.600000 15.000751 20.000000
endloop
endfacet
facet normal 0.000000 1.000000 0.000000
outer loop
vertex -25.600000 15.000751 20.000000
vertex -33.000000 15.000751 0.000000
vertex -33.000000 15.000751 20.000000
endloop
endfacet
facet normal 0.000000 0.000000 -1.000000
outer loop
vertex -25.600000 13.836997 0.000000
vertex -27.151831 13.681817 0.000000
vertex -25.600000 15.000751 0.000000
endloop
endfacet
facet normal 0.000000 0.000000 -1.000000
outer loop
vertex -25.600000 15.000751 0.000000
vertex -27.151831 13.681817 0.000000
vertex -28.676376 13.353155 0.000000
endloop
endfacet
facet normal 0.000000 0.000000 -1.000000
outer loop
vertex -25.600000 15.000751 0.000000
vertex -28.676376 13.353155 0.000000
vertex -33.000000 15.000751 0.000000
endloop
endfacet
facet normal 0.000000 0.000000 -1.000000
outer loop
vertex -33.000000 15.000751 0.000000
vertex -28.676376 13.353155 0.000000
vertex -30.154306 12.855179 0.000000
endloop
endfacet
facet normal 0.000000 0.000000 -1.000000
outer loop
vertex -33.000000 15.000751 0.000000
vertex -30.154306 12.855179 0.000000
vertex -31.566883 12.194201 0.000000
endloop
endfacet
facet normal 0.000000 0.000000 -1.000000
outer loop
vertex -33.000000 15.000751 0.000000
vertex -31.566883 12.194201 0.000000
vertex -33.000000 12.688578 0.000000
endloop
endfacet
facet normal 0.000000 0.000000 -1.000000
outer loop
vertex -33.000000 12.688578 0.000000
vertex -31.566883 12.194201 0.000000
vertex -32.896191 11.378606 0.000000
endloop
endfacet
facet normal 0.000000 0.000000 -1.000000
outer loop
vertex -33.000000 12.688578 0.000000
vertex -32.896191 11.378606 0.000000
vertex -34.299129 11.769713 0.000000
endloop
endfacet
facet normal 0.000000 0.000000 -1.000000
outer loop
vertex -34.299129 11.769713 0.000000
vertex -32.896191 11.378606 0.000000
vertex -34.125378 10.418732 0.000000
endloop
endfacet
facet normal 0.000000 0.000000 -1.000000
outer loop
vertex -34.299129 11.769713 0.000000
vertex -34.125378 10.418732 0.000000
vertex -35.493614 10.718398 0.000000
endloop
endfacet
facet normal 0.000000 0.000000 -1.000000
outer loop
vertex -35.493614 10.718398 0.000000
vertex -34.125378 10.418732 0.000000
vertex -35.238857 9.326751 0.000000
endloop
endfacet
facet normal 0.000000 0.000000 -1.000000
outer loop
vertex -35.493614 10.718398 0.000000
vertex -35.238857 9.326751 0.000000
vertex -36.570007 9.546463 0.000000
endloop
endfacet
facet normal 0.000000 0.000000 -1.000000
outer loop
vertex -36.570007 9.546463 0.000000
vertex -35.238857 9.326751 0.000000
vertex -36.222511 8.116509 0.000000
endloop
endfacet
facet normal 0.000000 0.000000 -1.000000
outer loop
vertex -36.570007 9.546463 0.000000
vertex -36.222511 8.116509 0.000000
vertex -37.516193 8.267096 0.000000
endloop
endfacet
facet normal 0.000000 0.000000 -1.000000
outer loop
vertex -37.516193 8.267096 0.000000
vertex -36.222511 8.116509 0.000000
vertex -37.063866 6.803353 0.000000
endloop
endfacet
facet normal 0.000000 0.000000 -1.000000
outer loop
vertex -37.516193 8.267096 0.000000
vertex -37.063866 6.803353 0.000000
vertex -38.321529 6.894694 0.000000
endloop
endfacet
facet normal 0.000000 0.000000 -1.000000
outer loop
vertex -38.321529 6.894694 0.000000
vertex -37.063866 6.803353 0.000000
vertex -37.752254 5.403932 0.000000
endloop
endfacet
facet normal 0.000000 0.000000 -1.000000
outer loop
vertex -38.321529 6.894694 0.000000
vertex -37.752254 5.403932 0.000000
vertex -38.976952 5.444703 0.000000
endloop
endfacet
facet normal 0.000000 0.000000 -1.000000
outer loop
vertex -38.976952 5.444703 0.000000
vertex -37.752254 5.403932 0.000000
vertex -38.278950 3.935990 0.000000
endloop
endfacet
facet normal 0.000000 0.000000 -1.000000
outer loop
vertex -38.976952 5.444703 0.000000
vertex -38.278950 3.935990 0.000000
vertex -39.475082 3.933439 0.000000
endloop
endfacet
facet normal 0.000000 0.000000 -1.000000
outer loop
vertex -39.475082 3.933439 0.000000
vertex -38.278950 3.935990 0.000000
vertex -38.637268 2.418141 0.000000
endloop
endfacet
facet normal 0.000000 0.000000 -1.000000
outer loop
vertex -39.475082 3.933439 0.000000
vertex -38.637268 2.418141 0.000000
vertex -39.810318 2.377910 0.000000
endloop
endfacet
facet normal 0.000000 0.000000 -1.000000
outer loop
vertex -39.810318 2.377910 0.000000
vertex -38.637268 2.418141 0.000000
vertex -38.822670 0.869630 0.000000
endloop
endfacet
facet normal 0.000000 0.000000 -1.000000
outer loop
vertex -39.810318 2.377910 0.000000
vertex -38.822670 0.869630 0.000000
vertex -39.978886 0.795621 0.000000
endloop
endfacet
facet normal 0.000000 0.000000 -1.000000
outer loop
vertex -39.978886 0.795621 0.000000
vertex -38.822670 0.869630 0.000000
vertex -38.832806 -0.689907 0.000000
endloop
endfacet
facet normal 0.000000 0.000000 -1.000000
outer loop
vertex -39.978886 0.795621 0.000000
vertex -38.832806 -0.689907 0.000000
vertex -39.978886 -0.795621 0.000000
endloop
endfacet
facet normal 0.000000 0.000000 -1.000000
outer loop
vertex -39.978886 -0.795621 0.000000
vertex -38.832806 -0.689907 0.000000
vertex -39.810318 -2.377910 0.000000
endloop
endfacet
facet normal 0.000000 0.000000 -1.000000
outer loop
vertex -39.810318 -2.377910 0.000000
vertex -38.832806 -0.689907 0.000000
vertex -38.667545 -2.240696 0.000000
endloop
endfacet
facet normal 0.000000 0.000000 -1.000000
outer loop
vertex -39.810318 -2.377910 0.000000
vertex -38.667545 -2.240696 0.000000
vertex -39.475082 -3.933439 0.000000
endloop
endfacet
facet normal 0.000000 0.000000 -1.000000
outer loop
vertex -39.475082 -3.933439 0.000000
vertex -38.667545 -2.240696 0.000000
vertex -38.328983 -3.763074 0.000000
endloop
endfacet
facet normal 0.000000 0.000000 -1.000000
outer loop
vertex -39.475082 -3.933439 0.000000
vertex -38.328983 -3.763074 0.000000
vertex -38.976952 -5.444703 0.000000
endloop
endfacet
facet normal 0.000000 0.000000 -1.000000
outer loop
vertex -38.976952 -5.444703 0.000000
vertex -38.328983 -3.763074 0.000000
vertex -37.821411 -5.237738 0.000000
endloop
endfacet
facet normal 0.000000 0.000000 -1.000000
outer loop
vertex -38.976952 -5.444703 0.000000
vertex -37.821411 -5.237738 0.000000
vertex -38.321529 -6.894694 0.000000
endloop
endfacet
facet normal 0.000000 0.000000 -1.000000
outer loop
vertex -38.321529 -6.894694 0.000000
vertex -37.821411 -5.237738 0.000000
vertex -37.151268 -6.645988 0.000000
endloop
endfacet
facet normal 0.000000 0.000000 -1.000000
outer loop
vertex -38.321529 -6.894694 0.000000
vertex -37.151268 -6.645988 0.000000
vertex -37.516193 -8.267096 0.000000
endloop
endfacet
facet normal 0.000000 0.000000 -1.000000
outer loop
vertex -37.516193 -8.267096 0.000000
vertex -37.151268 -6.645988 0.000000
vertex -36.327053 -7.969968 0.000000
endloop
endfacet
facet normal 0.000000 0.000000 -1.000000
outer loop
vertex -37.516193 -8.267096 0.000000
vertex -36.327053 -7.969968 0.000000
vertex -36.570007 -9.546463 0.000000
endloop
endfacet
facet normal 0.000000 0.000000 -1.000000
outer loop
vertex -36.570007 -9.546463 0.000000
vertex -36.327053 -7.969968 0.000000
vertex -35.359211 -9.192892 0.000000
endloop
endfacet
facet normal 0.000000 0.000000 -1.000000
outer loop
vertex -36.570007 -9.546463 0.000000
vertex -35.359211 -9.192892 0.000000
vertex -35.493614 -10.718398 0.000000
endloop
endfacet
facet normal 0.000000 0.000000 -1.000000
outer loop
vertex -35.493614 -10.718398 0.000000
vertex -35.359211 -9.192892 0.000000
vertex -34.260017 -10.299252 0.000000
endloop
endfacet
facet normal 0.000000 0.000000 -1.000000
outer loop
vertex -35.493614 -10.718398 0.000000
vertex -34.260017 -10.299252 0.000000
vertex -34.299129 -11.769713 0.000000
endloop
endfacet
facet normal 0.000000 0.000000 -1.000000
outer loop
vertex -34.299129 -11.769713 0.000000
vertex -34.260017 -10.299252 0.000000
vertex -33.043407 -11.275020 0.000000
endloop
endfacet
facet normal 0.000000 0.000000 -1.000000
outer loop
vertex -34.299129 -11.769713 0.000000
vertex -33.043407 -11.275020 0.000000
vertex -33.000000 -12.688578 0.000000
endloop
endfacet
facet normal 0.000000 0.000000 -1.000000
outer loop
vertex -33.000000 -12.688578 0.000000
vertex -33.043407 -11.275020 0.000000
vertex -31.724812 -12.107824 0.000000
endloop
endfacet
facet normal 0.000000 0.000000 -1.000000
outer loop
vertex -33.000000 -12.688578 0.000000
vertex -31.724812 -12.107824 0.000000
vertex -33.000000 -15.000000 0.000000
endloop
endfacet
facet normal 0.000000 0.000000 -1.000000
outer loop
vertex -33.000000 -15.000000 0.000000
vertex -31.724812 -12.107824 0.000000
vertex -30.320948 -12.787104 0.000000
endloop
endfacet
facet normal 0.000000 0.000000 -1.000000
outer loop
vertex -33.000000 -15.000000 0.000000
vertex -30.320948 -12.787104 0.000000
vertex -28.849613 -13.304247 0.000000
endloop
endfacet
facet normal 0.000000 0.000000 -1.000000
outer loop
vertex -28.849613 -13.304247 0.000000
vertex -27.329468 -13.652695 0.000000
vertex -33.000000 -15.000000 0.000000
endloop
endfacet
facet normal 0.000000 0.000000 -1.000000
outer loop
vertex -33.000000 -15.000000 0.000000
vertex -27.329468 -13.652695 0.000000
vertex -25.779785 -13.828031 0.000000
endloop
endfacet
facet normal 0.000000 0.000000 -1.000000
outer loop
vertex -33.000000 -15.000000 0.000000
vertex -25.779785 -13.828031 0.000000
vertex -24.220215 -13.828031 0.000000
endloop
endfacet
facet normal 0.000000 0.000000 -1.000000
outer loop
vertex -33.000000 -15.000000 0.000000
vertex -24.220215 -13.828031 0.000000
vertex -17.000000 -15.000000 0.000000
endloop
endfacet
facet normal 0.000000 0.000000 -1.000000
outer loop
vertex -17.000000 -15.000000 0.000000
vertex -24.220215 -13.828031 0.000000
vertex -22.670532 -13.652695 0.000000
endloop
endfacet
facet normal 0.000000 0.000000 -1.000000
outer loop
vertex -17.000000 -15.000000 0.000000
vertex -22.670532 -13.652695 0.000000
vertex -21.150387 -13.304247 0.000000
endloop
endfacet
facet normal 0.000000 0.000000 -1.000000
outer loop
vertex -21.150387 -13.304247 0.000000
vertex -19.679052 -12.787104 0.000000
vertex -17.000000 -15.000000 0.000000
endloop
endfacet
facet normal 0.000000 0.000000 -1.000000
outer loop
vertex -17.000000 -15.000000 0.000000
vertex -19.679052 -12.787104 0.000000
vertex -18.275188 -12.107824 0.000000
endloop
endfacet
facet normal 0.000000 0.000000 -1.000000
outer loop
vertex -17.000000 -15.000000 0.000000
vertex -18.275188 -12.107824 0.000000
vertex -17.000000 -12.688578 0.000000
endloop
endfacet
facet normal 0.000000 0.000000 -1.000000
outer loop
vertex -17.000000 -12.688578 0.000000
vertex -18.275188 -12.107824 0.000000
vertex -16.956591 -11.275020 0.000000
endloop
endfacet
facet normal 0.000000 0.000000 -1.000000
outer loop
vertex -17.000000 -12.688578 0.000000
vertex -16.956591 -11.275020 0.000000
vertex -15.700869 -11.769713 0.000000
endloop
endfacet
facet normal 0.000000 0.000000 -1.000000
outer loop
vertex -15.700869 -11.769713 0.000000
vertex -16.956591 -11.275020 0.000000
vertex -15.739983 -10.299252 0.000000
endloop
endfacet
facet normal 0.000000 0.000000 -1.000000
outer loop
vertex -15.700869 -11.769713 0.000000
vertex -15.739983 -10.299252 0.000000
vertex -14.506386 -10.718398 0.000000
endloop
endfacet
facet normal 0.000000 0.000000 -1.000000
outer loop
vertex -14.506386 -10.718398 0.000000
vertex -15.739983 -10.299252 0.000000
vertex -14.640789 -9.192892 0.000000
endloop
endfacet
facet normal 0.000000 0.000000 -1.000000
outer loop
vertex -14.506386 -10.718398 0.000000
vertex -14.640789 -9.192892 0.000000
vertex -13.429994 -9.546463 0.000000
endloop
endfacet
facet normal 0.000000 0.000000 -1.000000
outer loop
vertex -13.429994 -9.546463 0.000000
vertex -14.640789 -9.192892 0.000000
vertex -13.672948 -7.969968 0.000000
endloop
endfacet
facet normal 0.000000 0.000000 -1.000000
outer loop
vertex -13.429994 -9.546463 0.000000
vertex -13.672948 -7.969968 0.000000
vertex -12.483806 -8.267096 0.000000
endloop
endfacet
facet normal 0.000000 0.000000 -1.000000
outer loop
vertex -12.483806 -8.267096 0.000000
vertex -13.672948 -7.969968 0.000000
vertex -12.848730 -6.645988 0.000000
endloop
endfacet
facet normal 0.000000 0.000000 -1.000000
outer loop
vertex -12.483806 -8.267096 0.000000
vertex -12.848730 -6.645988 0.000000
vertex -11.678469 -6.894694 0.000000
endloop
endfacet
facet normal 0.000000 0.000000 -1.000000
outer loop
vertex -11.678469 -6.894694 0.000000
vertex -12.848730 -6.645988 0.000000
vertex -12.178588 -5.237738 0.000000
endloop
endfacet
facet normal 0.000000 0.000000 -1.000000
outer loop
vertex -11.678469 -6.894694 0.000000
vertex -12.178588 -5.237738 0.000000
vertex -11.023047 -5.444703 0.000000
endloop
endfacet
facet normal 0.000000 0.000000 -1.000000
outer loop
vertex -11.023047 -5.444703 0.000000
vertex -12.178588 -5.237738 0.000000
vertex -11.671018 -3.763074 0.000000
endloop
endfacet
facet normal 0.000000 0.000000 -1.000000
outer loop
vertex -11.023047 -5.444703 0.000000
vertex -11.671018 -3.763074 0.000000
vertex -10.524916 -3.933439 0.000000
endloop
endfacet
facet normal 0.000000 0.000000 -1.000000
outer loop
vertex -10.524916 -3.933439 0.000000
vertex -11.671018 -3.763074 0.000000
vertex -11.332456 -2.240696 0.000000
endloop
endfacet
facet normal 0.000000 0.000000 -1.000000
outer loop
vertex -10.524916 -3.933439 0.000000
vertex -11.332456 -2.240696 0.000000
vertex -10.189681 -2.377910 0.000000
endloop
endfacet
facet normal 0.000000 0.000000 -1.000000
outer loop
vertex -10.189681 -2.377910 0.000000
vertex -11.332456 -2.240696 0.000000
vertex -11.167193 -0.689907 0.000000
endloop
endfacet
facet normal 0.000000 0.000000 -1.000000
outer loop
vertex -10.189681 -2.377910 0.000000
vertex -11.167193 -0.689907 0.000000
vertex -10.021115 -0.795621 0.000000
endloop
endfacet
facet normal 0.000000 0.000000 -1.000000
outer loop
vertex -10.021115 -0.795621 0.000000
vertex -11.167193 -0.689907 0.000000
vertex -10.021115 0.795621 0.000000
endloop
endfacet
facet normal 0.000000 0.000000 -1.000000
outer loop
vertex -10.021115 0.795621 0.000000
vertex -11.167193 -0.689907 0.000000
vertex -11.177329 0.869630 0.000000
endloop
endfacet
facet normal 0.000000 0.000000 -1.000000
outer loop
vertex -10.021115 0.795621 0.000000
vertex -11.177329 0.869630 0.000000
vertex -10.189681 2.377910 0.000000
endloop
endfacet
facet normal 0.000000 0.000000 -1.000000
outer loop
vertex -10.189681 2.377910 0.000000
vertex -11.177329 0.869630 0.000000
vertex -11.362731 2.418141 0.000000
endloop
endfacet
facet normal 0.000000 0.000000 -1.000000
outer loop
vertex -10.189681 2.377910 0.000000
vertex -11.362731 2.418141 0.000000
vertex -10.524916 3.933439 0.000000
endloop
endfacet
facet normal 0.000000 0.000000 -1.000000
outer loop
vertex -10.524916 3.933439 0.000000
vertex -11.362731 2.418141 0.000000
vertex -11.721051 3.935990 0.000000
endloop
endfacet
facet normal 0.000000 0.000000 -1.000000
outer loop
vertex -10.524916 3.933439 0.000000
vertex -11.721051 3.935990 0.000000
vertex -11.023047 5.444703 0.000000
endloop
endfacet
facet normal 0.000000 0.000000 -1.000000
outer loop
vertex -11.023047 5.444703 0.000000
vertex -11.721051 3.935990 0.000000
vertex -12.247745 5.403932 0.000000
endloop
endfacet
facet normal 0.000000 0.000000 -1.000000
outer loop
vertex -11.023047 5.444703 0.000000
vertex -12.247745 5.403932 0.000000
vertex -11.678469 6.894694 0.000000
endloop
endfacet
facet normal 0.000000 0.000000 -1.000000
outer loop
vertex -11.678469 6.894694 0.000000
vertex -12.247745 5.403932 0.000000
vertex -12.936133 6.803353 0.000000
endloop
endfacet
facet normal 0.000000 0.000000 -1.000000
outer loop
vertex -11.678469 6.894694 0.000000
vertex -12.936133 6.803353 0.000000
vertex -12.483806 8.267096 0.000000
endloop
endfacet
facet normal 0.000000 0.000000 -1.000000
outer loop
vertex -12.483806 8.267096 0.000000
vertex -12.936133 6.803353 0.000000
vertex -13.777488 8.116509 0.000000
endloop
endfacet
facet normal 0.000000 0.000000 -1.000000
outer loop
vertex -12.483806 8.267096 0.000000
vertex -13.777488 8.116509 0.000000
vertex -13.429994 9.546463 0.000000
endloop
endfacet
facet normal 0.000000 0.000000 -1.000000
outer loop
vertex -13.429994 9.546463 0.000000
vertex -13.777488 8.116509 0.000000
vertex -14.761142 9.326751 0.000000
endloop
endfacet
facet normal 0.000000 0.000000 -1.000000
outer loop
vertex -13.429994 9.546463 0.000000
vertex -14.761142 9.326751 0.000000
vertex -14.506386 10.718398 0.000000
endloop
endfacet
facet normal 0.000000 0.000000 -1.000000
outer loop
vertex -14.506386 10.718398 0.000000
vertex -14.761142 9.326751 0.000000
vertex -15.874621 10.418732 0.000000
endloop
endfacet
facet normal 0.000000 0.000000 -1.000000
outer loop
vertex -14.506386 10.718398 0.000000
vertex -15.874621 10.418732 0.000000
vertex -15.700869 11.769713 0.000000
endloop
endfacet
facet normal 0.000000 0.000000 -1.000000
outer loop
vertex -15.700869 11.769713 0.000000
vertex -15.874621 10.418732 0.000000
vertex -17.103809 11.378606 0.000000
endloop
endfacet
facet normal 0.000000 0.000000 -1.000000
outer loop
vertex -15.700869 11.769713 0.000000
vertex -17.103809 11.378606 0.000000
vertex -17.000000 12.688578 0.000000
endloop
endfacet
facet normal 0.000000 0.000000 -1.000000
outer loop
vertex -17.000000 12.688578 0.000000
vertex -17.103809 11.378606 0.000000
vertex -18.433117 12.194201 0.000000
endloop
endfacet
facet normal 0.000000 0.000000 -1.000000
outer loop
vertex -17.000000 12.688578 0.000000
vertex -18.433117 12.194201 0.000000
vertex -17.000000 15.000751 0.000000
endloop
endfacet
facet normal 0.000000 0.000000 -1.000000
outer loop
vertex -17.000000 15.000751 0.000000
vertex -18.433117 12.194201 0.000000
vertex -19.845694 12.855179 0.000000
endloop
endfacet
facet normal 0.000000 0.000000 -1.000000
outer loop
vertex -17.000000 15.000751 0.000000
vertex -19.845694 12.855179 0.000000
vertex -21.323624 13.353155 0.000000
endloop
endfacet
facet normal 0.000000 0.000000 -1.000000
outer loop
vertex -17.000000 15.000751 0.000000
vertex -21.323624 13.353155 0.000000
vertex -24.400000 15.000751 0.000000
endloop
endfacet
facet normal 0.000000 0.000000 -1.000000
outer loop
vertex -24.400000 15.000751 0.000000
vertex -21.323624 13.353155 0.000000
vertex -22.848169 13.681817 0.000000
endloop
endfacet
facet normal 0.000000 0.000000 -1.000000
outer loop
vertex -24.400000 15.000751 0.000000
vertex -22.848169 13.681817 0.000000
vertex -24.400000 13.836997 0.000000
endloop
endfacet
facet normal 0.233280 0.972409 0.001353
outer loop
vertex -27.991993 -13.523094 9.412254
vertex -28.849613 -13.304247 0.000000
vertex -28.049999 -13.509996 10.000000
endloop
endfacet
facet normal 0.249193 0.968454 0.000000
outer loop
vertex -28.049999 -13.509996 10.000000
vertex -28.849613 -13.304247 0.000000
vertex -28.849613 -13.304247 20.000000
endloop
endfacet
facet normal 0.233280 0.972409 -0.001353
outer loop
vertex -28.049999 -13.509996 10.000000
vertex -28.849613 -13.304247 20.000000
vertex -27.991993 -13.523094 10.587746
endloop
endfacet
facet normal 0.217992 0.975946 -0.002829
outer loop
vertex -27.991993 -13.523094 10.587746
vertex -28.849613 -13.304247 20.000000
vertex -27.817127 -13.560468 11.168886
endloop
endfacet
facet normal 0.223425 0.974719 -0.002158
outer loop
vertex -27.817127 -13.560468 11.168886
vertex -28.849613 -13.304247 20.000000
vertex -27.329468 -13.652695 20.000000
endloop
endfacet
facet normal 0.193600 0.981080 -0.000445
outer loop
vertex -27.817127 -13.560468 11.168886
vertex -27.329468 -13.652695 20.000000
vertex -27.529785 -13.616928 11.702280
endloop
endfacet
facet normal 0.169193 0.985583 0.000164
outer loop
vertex -27.529785 -13.616928 11.702280
vertex -27.329468 -13.652695 20.000000
vertex -27.156742 -13.681044 12.156609
endloop
endfacet
facet normal 0.139482 0.990224 -0.000508
outer loop
vertex -27.156742 -13.681044 12.156609
vertex -27.329468 -13.652695 20.000000
vertex -26.702417 -13.744848 12.529693
endloop
endfacet
facet normal 0.112425 0.993656 -0.002821
outer loop
vertex -26.702417 -13.744848 12.529693
vertex -27.329468 -13.652695 20.000000
vertex -25.779785 -13.828031 20.000000
endloop
endfacet
facet normal 0.104913 0.994480 -0.001884
outer loop
vertex -26.702417 -13.744848 12.529693
vertex -25.779785 -13.828031 20.000000
vertex -26.168976 -13.800579 12.817090
endloop
endfacet
facet normal 0.062794 0.998026 0.000412
outer loop
vertex -26.168976 -13.800579 12.817090
vertex -25.779785 -13.828031 20.000000
vertex -25.587774 -13.837219 12.991986
endloop
endfacet
facet normal 0.021810 0.999762 -0.000713
outer loop
vertex -25.587774 -13.837219 12.991986
vertex -25.779785 -13.828031 20.000000
vertex -25.000000 -13.850000 13.050000
endloop
endfacet
facet normal 0.000000 0.999995 -0.003161
outer loop
vertex -25.000000 -13.850000 13.050000
vertex -25.779785 -13.828031 20.000000
vertex -24.220215 -13.828031 20.000000
endloop
endfacet
facet normal -0.021810 0.999762 -0.000713
outer loop
vertex -25.000000 -13.850000 13.050000
vertex -24.220215 -13.828031 20.000000
vertex -24.412226 -13.837219 12.991986
endloop
endfacet
facet normal -0.062794 0.998026 0.000412
outer loop
vertex -24.412226 -13.837219 12.991986
vertex -24.220215 -13.828031 20.000000
vertex -23.831024 -13.800579 12.817090
endloop
endfacet
facet normal -0.104912 0.994480 -0.001884
outer loop
vertex -23.831024 -13.800579 12.817090
vertex -24.220215 -13.828031 20.000000
vertex -23.297583 -13.744848 12.529693
endloop
endfacet
facet normal -0.112425 0.993656 -0.002821
outer loop
vertex -23.297583 -13.744848 12.529693
vertex -24.220215 -13.828031 20.000000
vertex -22.670532 -13.652695 20.000000
endloop
endfacet
facet normal -0.139482 0.990224 -0.000507
outer loop
vertex -23.297583 -13.744848 12.529693
vertex -22.670532 -13.652695 20.000000
vertex -22.843258 -13.681044 12.156609
endloop
endfacet
facet normal -0.169193 0.985583 0.000164
outer loop
vertex -22.843258 -13.681044 12.156609
vertex -22.670532 -13.652695 20.000000
vertex -22.470215 -13.616928 11.702280
endloop
endfacet
facet normal -0.193600 0.981080 -0.000445
outer loop
vertex -22.470215 -13.616928 11.702280
vertex -22.670532 -13.652695 20.000000
vertex -22.182873 -13.560468 11.168886
endloop
endfacet
facet normal -0.214169 0.976795 -0.001625
outer loop
vertex -22.182873 -13.560468 11.168886
vertex -22.670532 -13.652695 20.000000
vertex -22.008007 -13.523094 10.587746
endloop
endfacet
facet normal -0.288078 0.957581 -0.007092
outer loop
vertex -22.008007 -13.523094 10.587746
vertex -22.670532 -13.652695 20.000000
vertex -21.950001 -13.509996 10.000000
endloop
endfacet
facet normal -0.223425 0.974719 -0.002190
outer loop
vertex -21.950001 -13.509996 10.000000
vertex -22.670532 -13.652695 20.000000
vertex -21.150387 -13.304247 20.000000
endloop
endfacet
facet normal -0.249194 0.968454 0.000000
outer loop
vertex -21.950001 -13.509996 10.000000
vertex -21.150387 -13.304247 20.000000
vertex -21.150387 -13.304247 0.000000
endloop
endfacet
facet normal -0.331593 0.943423 0.000000
outer loop
vertex -21.150387 -13.304247 0.000000
vertex -21.150387 -13.304247 20.000000
vertex -19.679052 -12.787104 20.000000
endloop
endfacet
facet normal -0.331594 0.943422 0.000000
outer loop
vertex -21.150387 -13.304247 0.000000
vertex -19.679052 -12.787104 20.000000
vertex -19.679052 -12.787104 0.000000
endloop
endfacet
facet normal -0.435555 0.900162 0.000000
outer loop
vertex -19.679052 -12.787104 0.000000
vertex -19.679052 -12.787104 20.000000
vertex -18.275188 -12.107824 20.000000
endloop
endfacet
facet normal -0.435557 0.900161 0.000000
outer loop
vertex -19.679052 -12.787104 0.000000
vertex -18.275188 -12.107824 20.000000
vertex -18.275188 -12.107824 0.000000
endloop
endfacet
facet normal -0.533996 0.845487 0.000000
outer loop
vertex -18.275188 -12.107824 0.000000
vertex -18.275188 -12.107824 20.000000
vertex -16.956591 -11.275020 20.000000
endloop
endfacet
facet normal -0.533995 0.845488 0.000000
outer loop
vertex -18.275188 -12.107824 0.000000
vertex -16.956591 -11.275020 20.000000
vertex -16.956591 -11.275020 0.000000
endloop
endfacet
facet normal -0.625664 0.780093 0.000000
outer loop
vertex -16.956591 -11.275020 0.000000
vertex -16.956591 -11.275020 20.000000
vertex -15.739983 -10.299252 20.000000
endloop
endfacet
facet normal -0.625666 0.780091 0.000000
outer loop
vertex -16.956591 -11.275020 0.000000
vertex -15.739983 -10.299252 20.000000
vertex -15.739983 -10.299252 0.000000
endloop
endfacet
facet normal -0.709400 0.704806 0.000000
outer loop
vertex -15.739983 -10.299252 0.000000
vertex -15.739983 -10.299252 20.000000
vertex -14.640789 -9.192892 20.000000
endloop
endfacet
facet normal -0.709401 0.704805 0.000000
outer loop
vertex -15.739983 -10.299252 0.000000
vertex -14.640789 -9.192892 20.000000
vertex -14.640789 -9.192892 0.000000
endloop
endfacet
facet normal -0.784141 0.620583 0.000000
outer loop
vertex -14.640789 -9.192892 0.000000
vertex -14.640789 -9.192892 20.000000
vertex -13.672948 -7.969968 20.000000
endloop
endfacet
facet normal -0.784142 0.620582 0.000000
outer loop
vertex -14.640789 -9.192892 0.000000
vertex -13.672948 -7.969968 20.000000
vertex -13.672948 -7.969968 0.000000
endloop
endfacet
facet normal -0.848940 0.528489 0.000000
outer loop
vertex -13.672948 -7.969968 0.000000
vertex -13.672948 -7.969968 20.000000
vertex -12.848730 -6.645988 20.000000
endloop
endfacet
facet normal -0.848939 0.528491 0.000000
outer loop
vertex -13.672948 -7.969968 0.000000
vertex -12.848730 -6.645988 20.000000
vertex -12.848730 -6.645988 0.000000
endloop
endfacet
facet normal -0.902973 0.429698 0.000000
outer loop
vertex -12.848730 -6.645988 0.000000
vertex -12.848730 -6.645988 20.000000
vertex -12.178588 -5.237738 20.000000
endloop
endfacet
facet normal -0.902974 0.429696 0.000000
outer loop
vertex -12.848730 -6.645988 0.000000
vertex -12.178588 -5.237738 20.000000
vertex -12.178588 -5.237738 0.000000
endloop
endfacet
facet normal -0.945558 0.325455 0.000000
outer loop
vertex -12.178588 -5.237738 0.000000
vertex -12.178588 -5.237738 20.000000
vertex -11.671018 -3.763074 20.000000
endloop
endfacet
facet normal -0.945557 0.325456 0.000000
outer loop
vertex -12.178588 -5.237738 0.000000
vertex -11.671018 -3.763074 20.000000
vertex -11.671018 -3.763074 0.000000
endloop
endfacet
facet normal -0.976152 0.217087 0.000000
outer loop
vertex -11.671018 -3.763074 0.000000
vertex -11.671018 -3.763074 20.000000
vertex -11.332456 -2.240696 20.000000
endloop
endfacet
facet normal -0.976152 0.217087 0.000000
outer loop
vertex -11.671018 -3.763074 0.000000
vertex -11.332456 -2.240696 20.000000
vertex -11.332456 -2.240696 0.000000
endloop
endfacet
facet normal -0.994370 0.105966 0.000000
outer loop
vertex -11.332456 -2.240696 0.000000
vertex -11.332456 -2.240696 20.000000
vertex -11.167193 -0.689907 20.000000
endloop
endfacet
facet normal -0.994370 0.105966 0.000000
outer loop
vertex -11.332456 -2.240696 0.000000
vertex -11.167193 -0.689907 20.000000
vertex -11.167193 -0.689907 0.000000
endloop
endfacet
facet normal -0.999979 -0.006499 0.000000
outer loop
vertex -11.167193 -0.689907 0.000000
vertex -11.167193 -0.689907 20.000000
vertex -11.177329 0.869630 20.000000
endloop
endfacet
facet normal -0.999979 -0.006499 0.000000
outer loop
vertex -11.167193 -0.689907 0.000000
vertex -11.177329 0.869630 20.000000
vertex -11.177329 0.869630 0.000000
endloop
endfacet
facet normal -0.992909 -0.118880 0.000000
outer loop
vertex -11.177329 0.869630 0.000000
vertex -11.177329 0.869630 20.000000
vertex -11.362731 2.418141 20.000000
endloop
endfacet
facet normal -0.992909 -0.118880 0.000000
outer loop
vertex -11.177329 0.869630 0.000000
vertex -11.362731 2.418141 20.000000
vertex -11.362731 2.418141 0.000000
endloop
endfacet
facet normal -0.973248 -0.229756 0.000000
outer loop
vertex -11.362731 2.418141 0.000000
vertex -11.362731 2.418141 20.000000
vertex -11.721051 3.935990 20.000000
endloop
endfacet
facet normal -0.973249 -0.229755 0.000000
outer loop
vertex -11.362731 2.418141 0.000000
vertex -11.721051 3.935990 20.000000
vertex -11.721051 3.935990 0.000000
endloop
endfacet
facet normal -0.941248 -0.337717 0.000000
outer loop
vertex -11.721051 3.935990 0.000000
vertex -11.721051 3.935990 20.000000
vertex -12.247745 5.403932 0.000000
endloop
endfacet
facet normal -0.941248 -0.337717 0.000000
outer loop
vertex -12.247745 5.403932 0.000000
vertex -11.721051 3.935990 20.000000
vertex -12.247745 5.403932 20.000000
endloop
endfacet
facet normal -0.897312 -0.441396 0.000000
outer loop
vertex -12.247745 5.403932 0.000000
vertex -12.247745 5.403932 20.000000
vertex -12.936133 6.803353 0.000000
endloop
endfacet
facet normal -0.897312 -0.441396 0.000000
outer loop
vertex -12.936133 6.803353 0.000000
vertex -12.247745 5.403932 20.000000
vertex -12.936133 6.803353 20.000000
endloop
endfacet
facet normal -0.841999 -0.539479 0.000000
outer loop
vertex -12.936133 6.803353 0.000000
vertex -12.936133 6.803353 20.000000
vertex -13.777488 8.116509 0.000000
endloop
endfacet
facet normal -0.841999 -0.539479 0.000000
outer loop
vertex -13.777488 8.116509 0.000000
vertex -12.936133 6.803353 20.000000
vertex -13.777488 8.116509 20.000000
endloop
endfacet
facet normal -0.776009 -0.630722 0.000000
outer loop
vertex -13.777488 8.116509 0.000000
vertex -13.777488 8.116509 20.000000
vertex -14.761142 9.326751 20.000000
endloop
endfacet
facet normal 0.217992 0.975946 0.002829
outer loop
vertex -27.991993 -13.523094 9.412254
vertex -27.817127 -13.560468 8.831114
vertex -28.849613 -13.304247 0.000000
endloop
endfacet
facet normal 0.223425 0.974719 0.002158
outer loop
vertex -28.849613 -13.304247 0.000000
vertex -27.817127 -13.560468 8.831114
vertex -27.329468 -13.652695 0.000000
endloop
endfacet
facet normal 0.193601 0.981080 0.000445
outer loop
vertex -27.329468 -13.652695 0.000000
vertex -27.817127 -13.560468 8.831114
vertex -27.529785 -13.616928 8.297720
endloop
endfacet
facet normal 0.169193 0.985583 -0.000164
outer loop
vertex -27.329468 -13.652695 0.000000
vertex -27.529785 -13.616928 8.297720
vertex -27.156742 -13.681044 7.843391
endloop
endfacet
facet normal 0.139482 0.990224 0.000508
outer loop
vertex -27.156742 -13.681044 7.843391
vertex -26.702417 -13.744848 7.470308
vertex -27.329468 -13.652695 0.000000
endloop
endfacet
facet normal 0.112425 0.993656 0.002821
outer loop
vertex -27.329468 -13.652695 0.000000
vertex -26.702417 -13.744848 7.470308
vertex -25.779785 -13.828031 0.000000
endloop
endfacet
facet normal 0.104913 0.994480 0.001884
outer loop
vertex -25.779785 -13.828031 0.000000
vertex -26.702417 -13.744848 7.470308
vertex -26.168976 -13.800579 7.182910
endloop
endfacet
facet normal 0.062794 0.998026 -0.000412
outer loop
vertex -25.779785 -13.828031 0.000000
vertex -26.168976 -13.800579 7.182910
vertex -25.587774 -13.837219 7.008014
endloop
endfacet
facet normal 0.021810 0.999762 0.000713
outer loop
vertex -25.587774 -13.837219 7.008014
vertex -25.000000 -13.850000 6.950000
vertex -25.779785 -13.828031 0.000000
endloop
endfacet
facet normal 0.000000 0.999995 0.003161
outer loop
vertex -25.779785 -13.828031 0.000000
vertex -25.000000 -13.850000 6.950000
vertex -24.220215 -13.828031 0.000000
endloop
endfacet
facet normal -0.021810 0.999762 0.000713
outer loop
vertex -24.220215 -13.828031 0.000000
vertex -25.000000 -13.850000 6.950000
vertex -24.412226 -13.837219 7.008014
endloop
endfacet
facet normal -0.062794 0.998026 -0.000412
outer loop
vertex -24.220215 -13.828031 0.000000
vertex -24.412226 -13.837219 7.008014
vertex -23.831024 -13.800579 7.182910
endloop
endfacet
facet normal -0.104913 0.994480 0.001884
outer loop
vertex -23.831024 -13.800579 7.182910
vertex -23.297583 -13.744848 7.470308
vertex -24.220215 -13.828031 0.000000
endloop
endfacet
facet normal -0.112425 0.993656 0.002821
outer loop
vertex -24.220215 -13.828031 0.000000
vertex -23.297583 -13.744848 7.470308
vertex -22.670532 -13.652695 0.000000
endloop
endfacet
facet normal -0.139482 0.990225 0.000508
outer loop
vertex -22.670532 -13.652695 0.000000
vertex -23.297583 -13.744848 7.470308
vertex -22.843258 -13.681044 7.843391
endloop
endfacet
facet normal -0.169194 0.985583 -0.000164
outer loop
vertex -22.670532 -13.652695 0.000000
vertex -22.843258 -13.681044 7.843391
vertex -22.470215 -13.616928 8.297720
endloop
endfacet
facet normal -0.193600 0.981080 0.000445
outer loop
vertex -22.470215 -13.616928 8.297720
vertex -22.182873 -13.560468 8.831114
vertex -22.670532 -13.652695 0.000000
endloop
endfacet
facet normal -0.214171 0.976795 0.001625
outer loop
vertex -22.670532 -13.652695 0.000000
vertex -22.182873 -13.560468 8.831114
vertex -22.008007 -13.523094 9.412254
endloop
endfacet
facet normal -0.288066 0.957584 0.007096
outer loop
vertex -22.670532 -13.652695 0.000000
vertex -22.008007 -13.523094 9.412254
vertex -21.950001 -13.509996 10.000000
endloop
endfacet
facet normal -0.099502 -0.995037 0.000000
outer loop
vertex -24.400000 13.836997 0.000000
vertex -22.848169 13.681817 0.000000
vertex -24.400000 13.836997 20.000000
endloop
endfacet
facet normal -0.099502 -0.995037 0.000000
outer loop
vertex -24.400000 13.836997 20.000000
vertex -22.848169 13.681817 0.000000
vertex -22.848169 13.681817 20.000000
endloop
endfacet
facet normal -0.210738 -0.977542 0.000000
outer loop
vertex -22.848169 13.681817 20.000000
vertex -22.848169 13.681817 0.000000
vertex -21.323624 13.353155 0.000000
endloop
endfacet
facet normal -0.210739 -0.977542 0.000000
outer loop
vertex -22.848169 13.681817 20.000000
vertex -21.323624 13.353155 0.000000
vertex -21.323624 13.353155 20.000000
endloop
endfacet
facet normal -0.319304 -0.947652 0.000000
outer loop
vertex -21.323624 13.353155 20.000000
vertex -21.323624 13.353155 0.000000
vertex -19.845694 12.855179 0.000000
endloop
endfacet
facet normal -0.319304 -0.947652 0.000000
outer loop
vertex -21.323624 13.353155 20.000000
vertex -19.845694 12.855179 0.000000
vertex -19.845694 12.855179 20.000000
endloop
endfacet
facet normal -0.423819 -0.905747 0.000000
outer loop
vertex -19.845694 12.855179 20.000000
vertex -19.845694 12.855179 0.000000
vertex -18.433117 12.194201 0.000000
endloop
endfacet
facet normal -0.423821 -0.905746 0.000000
outer loop
vertex -19.845694 12.855179 20.000000
vertex -18.433117 12.194201 0.000000
vertex -18.433117 12.194201 20.000000
endloop
endfacet
facet normal -0.522962 -0.852356 0.000000
outer loop
vertex -18.433117 12.194201 20.000000
vertex -18.433117 12.194201 0.000000
vertex -17.103809 11.378606 0.000000
endloop
endfacet
facet normal -0.522962 -0.852356 0.000000
outer loop
vertex -18.433117 12.194201 20.000000
vertex -17.103809 11.378606 0.000000
vertex -17.103809 11.378606 20.000000
endloop
endfacet
facet normal -0.615474 -0.788158 0.000000
outer loop
vertex -17.103809 11.378606 20.000000
vertex -17.103809 11.378606 0.000000
vertex -15.874621 10.418732 0.000000
endloop
endfacet
facet normal -0.615474 -0.788158 0.000000
outer loop
vertex -17.103809 11.378606 20.000000
vertex -15.874621 10.418732 0.000000
vertex -15.874621 10.418732 20.000000
endloop
endfacet
facet normal -0.700181 -0.713966 0.000000
outer loop
vertex -15.874621 10.418732 20.000000
vertex -15.874621 10.418732 0.000000
vertex -14.761142 9.326751 0.000000
endloop
endfacet
facet normal -0.700181 -0.713966 0.000000
outer loop
vertex -15.874621 10.418732 20.000000
vertex -14.761142 9.326751 0.000000
vertex -14.761142 9.326751 20.000000
endloop
endfacet
facet normal -0.776009 -0.630722 0.000000
outer loop
vertex -14.761142 9.326751 20.000000
vertex -14.761142 9.326751 0.000000
vertex -13.777488 8.116509 0.000000
endloop
endfacet
facet normal -0.223425 0.974719 0.002190
outer loop
vertex -21.150387 -13.304247 0.000000
vertex -22.670532 -13.652695 0.000000
vertex -21.950001 -13.509996 10.000000
endloop
endfacet
facet normal 0.331593 0.943423 0.000000
outer loop
vertex -28.849613 -13.304247 0.000000
vertex -30.320948 -12.787104 0.000000
vertex -28.849613 -13.304247 20.000000
endloop
endfacet
facet normal 0.331594 0.943422 0.000000
outer loop
vertex -28.849613 -13.304247 20.000000
vertex -30.320948 -12.787104 0.000000
vertex -30.320948 -12.787104 20.000000
endloop
endfacet
facet normal 0.435554 0.900162 0.000000
outer loop
vertex -30.320948 -12.787104 20.000000
vertex -30.320948 -12.787104 0.000000
vertex -31.724812 -12.107824 0.000000
endloop
endfacet
facet normal 0.435558 0.900161 0.000000
outer loop
vertex -30.320948 -12.787104 20.000000
vertex -31.724812 -12.107824 0.000000
vertex -31.724812 -12.107824 20.000000
endloop
endfacet
facet normal 0.533996 0.845487 0.000000
outer loop
vertex -31.724812 -12.107824 20.000000
vertex -31.724812 -12.107824 0.000000
vertex -33.043407 -11.275020 0.000000
endloop
endfacet
facet normal 0.533996 0.845487 0.000000
outer loop
vertex -31.724812 -12.107824 20.000000
vertex -33.043407 -11.275020 0.000000
vertex -33.043407 -11.275020 20.000000
endloop
endfacet
facet normal 0.625667 0.780090 0.000000
outer loop
vertex -33.043407 -11.275020 20.000000
vertex -33.043407 -11.275020 0.000000
vertex -34.260017 -10.299252 0.000000
endloop
endfacet
facet normal 0.625663 0.780093 0.000000
outer loop
vertex -33.043407 -11.275020 20.000000
vertex -34.260017 -10.299252 0.000000
vertex -34.260017 -10.299252 20.000000
endloop
endfacet
facet normal 0.709398 0.704808 0.000000
outer loop
vertex -34.260017 -10.299252 20.000000
vertex -34.260017 -10.299252 0.000000
vertex -35.359211 -9.192892 0.000000
endloop
endfacet
facet normal 0.709402 0.704804 0.000000
outer loop
vertex -34.260017 -10.299252 20.000000
vertex -35.359211 -9.192892 0.000000
vertex -35.359211 -9.192892 20.000000
endloop
endfacet
facet normal 0.784140 0.620584 0.000000
outer loop
vertex -35.359211 -9.192892 20.000000
vertex -35.359211 -9.192892 0.000000
vertex -36.327053 -7.969968 0.000000
endloop
endfacet
facet normal 0.784142 0.620582 0.000000
outer loop
vertex -35.359211 -9.192892 20.000000
vertex -36.327053 -7.969968 0.000000
vertex -36.327053 -7.969968 20.000000
endloop
endfacet
facet normal 0.848941 0.528488 0.000000
outer loop
vertex -36.327053 -7.969968 20.000000
vertex -36.327053 -7.969968 0.000000
vertex -37.151268 -6.645988 0.000000
endloop
endfacet
facet normal 0.848939 0.528491 0.000000
outer loop
vertex -36.327053 -7.969968 20.000000
vertex -37.151268 -6.645988 0.000000
vertex -37.151268 -6.645988 20.000000
endloop
endfacet
facet normal 0.902973 0.429697 0.000000
outer loop
vertex -37.151268 -6.645988 20.000000
vertex -37.151268 -6.645988 0.000000
vertex -37.821411 -5.237738 0.000000
endloop
endfacet
facet normal 0.902973 0.429697 0.000000
outer loop
vertex -37.151268 -6.645988 20.000000
vertex -37.821411 -5.237738 0.000000
vertex -37.821411 -5.237738 20.000000
endloop
endfacet
facet normal 0.945558 0.325454 0.000000
outer loop
vertex -37.821411 -5.237738 20.000000
vertex -37.821411 -5.237738 0.000000
vertex -38.328983 -3.763074 0.000000
endloop
endfacet
facet normal 0.945557 0.325458 0.000000
outer loop
vertex -37.821411 -5.237738 20.000000
vertex -38.328983 -3.763074 0.000000
vertex -38.328983 -3.763074 20.000000
endloop
endfacet
facet normal 0.976152 0.217087 0.000000
outer loop
vertex -38.328983 -3.763074 20.000000
vertex -38.328983 -3.763074 0.000000
vertex -38.667545 -2.240696 0.000000
endloop
endfacet
facet normal 0.976152 0.217087 0.000000
outer loop
vertex -38.328983 -3.763074 20.000000
vertex -38.667545 -2.240696 0.000000
vertex -38.667545 -2.240696 20.000000
endloop
endfacet
facet normal 0.994370 0.105968 0.000000
outer loop
vertex -38.667545 -2.240696 20.000000
vertex -38.667545 -2.240696 0.000000
vertex -38.832806 -0.689907 0.000000
endloop
endfacet
facet normal 0.994370 0.105964 0.000000
outer loop
vertex -38.667545 -2.240696 20.000000
vertex -38.832806 -0.689907 0.000000
vertex -38.832806 -0.689907 20.000000
endloop
endfacet
facet normal 0.999979 -0.006504 0.000000
outer loop
vertex -38.832806 -0.689907 20.000000
vertex -38.832806 -0.689907 0.000000
vertex -38.822670 0.869630 0.000000
endloop
endfacet
facet normal 0.999979 -0.006497 0.000000
outer loop
vertex -38.832806 -0.689907 20.000000
vertex -38.822670 0.869630 0.000000
vertex -38.822670 0.869630 20.000000
endloop
endfacet
facet normal 0.992909 -0.118879 0.000000
outer loop
vertex -38.822670 0.869630 20.000000
vertex -38.822670 0.869630 0.000000
vertex -38.637268 2.418141 0.000000
endloop
endfacet
facet normal 0.992909 -0.118879 0.000000
outer loop
vertex -38.822670 0.869630 20.000000
vertex -38.637268 2.418141 0.000000
vertex -38.637268 2.418141 20.000000
endloop
endfacet
facet normal 0.973248 -0.229759 0.000000
outer loop
vertex -38.637268 2.418141 20.000000
vertex -38.637268 2.418141 0.000000
vertex -38.278950 3.935990 0.000000
endloop
endfacet
facet normal 0.973249 -0.229751 0.000000
outer loop
vertex -38.637268 2.418141 20.000000
vertex -38.278950 3.935990 0.000000
vertex -38.278950 3.935990 20.000000
endloop
endfacet
facet normal 0.941247 -0.337719 0.000000
outer loop
vertex -38.278950 3.935990 20.000000
vertex -38.278950 3.935990 0.000000
vertex -37.752254 5.403932 0.000000
endloop
endfacet
facet normal 0.941248 -0.337715 0.000000
outer loop
vertex -38.278950 3.935990 20.000000
vertex -37.752254 5.403932 0.000000
vertex -37.752254 5.403932 20.000000
endloop
endfacet
facet normal 0.897310 -0.441401 0.000000
outer loop
vertex -37.752254 5.403932 20.000000
vertex -37.752254 5.403932 0.000000
vertex -37.063866 6.803353 0.000000
endloop
endfacet
facet normal 0.897315 -0.441391 0.000000
outer loop
vertex -37.752254 5.403932 20.000000
vertex -37.063866 6.803353 0.000000
vertex -37.063866 6.803353 20.000000
endloop
endfacet
facet normal 0.841998 -0.539480 0.000000
outer loop
vertex -37.063866 6.803353 20.000000
vertex -37.063866 6.803353 0.000000
vertex -36.222511 8.116509 0.000000
endloop
endfacet
facet normal 0.841998 -0.539480 0.000000
outer loop
vertex -37.063866 6.803353 20.000000
vertex -36.222511 8.116509 0.000000
vertex -36.222511 8.116509 20.000000
endloop
endfacet
facet normal 0.776009 -0.630722 0.000000
outer loop
vertex -36.222511 8.116509 20.000000
vertex -36.222511 8.116509 0.000000
vertex -35.238857 9.326751 0.000000
endloop
endfacet
facet normal 0.776011 -0.630719 0.000000
outer loop
vertex -36.222511 8.116509 20.000000
vertex -35.238857 9.326751 0.000000
vertex -35.238857 9.326751 20.000000
endloop
endfacet
facet normal 0.700180 -0.713967 0.000000
outer loop
vertex -35.238857 9.326751 20.000000
vertex -35.238857 9.326751 0.000000
vertex -34.125378 10.418732 0.000000
endloop
endfacet
facet normal 0.700182 -0.713965 0.000000
outer loop
vertex -35.238857 9.326751 20.000000
vertex -34.125378 10.418732 0.000000
vertex -34.125378 10.418732 20.000000
endloop
endfacet
facet normal 0.615474 -0.788158 0.000000
outer loop
vertex -34.125378 10.418732 20.000000
vertex -34.125378 10.418732 0.000000
vertex -32.896191 11.378606 0.000000
endloop
endfacet
facet normal 0.615474 -0.788158 0.000000
outer loop
vertex -34.125378 10.418732 20.000000
vertex -32.896191 11.378606 0.000000
vertex -32.896191 11.378606 20.000000
endloop
endfacet
facet normal 0.522962 -0.852356 0.000000
outer loop
vertex -32.896191 11.378606 20.000000
vertex -32.896191 11.378606 0.000000
vertex -31.566883 12.194201 0.000000
endloop
endfacet
facet normal 0.522962 -0.852356 0.000000
outer loop
vertex -32.896191 11.378606 20.000000
vertex -31.566883 12.194201 0.000000
vertex -31.566883 12.194201 20.000000
endloop
endfacet
facet normal 0.423821 -0.905746 0.000000
outer loop
vertex -31.566883 12.194201 20.000000
vertex -31.566883 12.194201 0.000000
vertex -30.154306 12.855179 0.000000
endloop
endfacet
facet normal 0.423819 -0.905747 0.000000
outer loop
vertex -31.566883 12.194201 20.000000
vertex -30.154306 12.855179 0.000000
vertex -30.154306 12.855179 20.000000
endloop
endfacet
facet normal 0.319304 -0.947652 0.000000
outer loop
vertex -30.154306 12.855179 20.000000
vertex -30.154306 12.855179 0.000000
vertex -28.676376 13.353155 0.000000
endloop
endfacet
facet normal 0.319304 -0.947652 0.000000
outer loop
vertex -30.154306 12.855179 20.000000
vertex -28.676376 13.353155 0.000000
vertex -28.676376 13.353155 20.000000
endloop
endfacet
facet normal 0.210739 -0.977542 0.000000
outer loop
vertex -28.676376 13.353155 20.000000
vertex -28.676376 13.353155 0.000000
vertex -27.151831 13.681817 0.000000
endloop
endfacet
facet normal 0.210738 -0.977542 0.000000
outer loop
vertex -28.676376 13.353155 20.000000
vertex -27.151831 13.681817 0.000000
vertex -27.151831 13.681817 20.000000
endloop
endfacet
facet normal 0.099502 -0.995037 0.000000
outer loop
vertex -27.151831 13.681817 20.000000
vertex -27.151831 13.681817 0.000000
vertex -25.600000 13.836997 0.000000
endloop
endfacet
facet normal 0.099502 -0.995037 0.000000
outer loop
vertex -27.151831 13.681817 20.000000
vertex -25.600000 13.836997 0.000000
vertex -25.600000 13.836997 20.000000
endloop
endfacet
facet normal 1.000000 0.000000 0.000000
outer loop
vertex -17.000000 12.688578 0.000000
vertex -17.000000 15.000751 0.000000
vertex -17.000000 12.688578 20.000000
endloop
endfacet
facet normal 1.000000 0.000000 0.000000
outer loop
vertex -17.000000 12.688578 20.000000
vertex -17.000000 15.000751 0.000000
vertex -17.000000 15.000751 20.000000
endloop
endfacet
facet normal -1.000000 0.000000 0.000000
outer loop
vertex -33.000000 15.000751 0.000000
vertex -33.000000 12.688578 0.000000
vertex -33.000000 15.000751 20.000000
endloop
endfacet
facet normal -1.000000 0.000000 0.000000
outer loop
vertex -33.000000 15.000751 20.000000
vertex -33.000000 12.688578 0.000000
vertex -33.000000 12.688578 20.000000
endloop
endfacet
facet normal 0.000000 1.000000 0.000000
outer loop
vertex -24.400000 15.000751 20.000000
vertex -17.000000 15.000751 20.000000
vertex -24.400000 15.000751 0.000000
endloop
endfacet
facet normal 0.000000 1.000000 0.000000
outer loop
vertex -24.400000 15.000751 0.000000
vertex -17.000000 15.000751 20.000000
vertex -17.000000 15.000751 0.000000
endloop
endfacet
facet normal 0.577450 0.816426 0.000000
outer loop
vertex -17.000000 12.688578 0.000000
vertex -17.000000 12.688578 20.000000
vertex -15.700869 11.769713 0.000000
endloop
endfacet
facet normal 0.577451 0.816425 0.000000
outer loop
vertex -15.700869 11.769713 0.000000
vertex -17.000000 12.688578 20.000000
vertex -15.700869 11.769713 20.000000
endloop
endfacet
facet normal 0.660688 0.750660 0.000000
outer loop
vertex -15.700869 11.769713 0.000000
vertex -15.700869 11.769713 20.000000
vertex -14.506386 10.718398 0.000000
endloop
endfacet
facet normal 0.660688 0.750660 0.000000
outer loop
vertex -14.506386 10.718398 0.000000
vertex -15.700869 11.769713 20.000000
vertex -14.506386 10.718398 20.000000
endloop
endfacet
facet normal 0.736490 0.676449 0.000000
outer loop
vertex -14.506386 10.718398 0.000000
vertex -14.506386 10.718398 20.000000
vertex -13.429994 9.546463 0.000000
endloop
endfacet
facet normal 0.736492 0.676446 0.000000
outer loop
vertex -13.429994 9.546463 0.000000
vertex -14.506386 10.718398 20.000000
vertex -13.429994 9.546463 20.000000
endloop
endfacet
facet normal 0.804005 0.594622 0.000000
outer loop
vertex -13.429994 9.546463 0.000000
vertex -13.429994 9.546463 20.000000
vertex -12.483806 8.267096 0.000000
endloop
endfacet
facet normal 0.804005 0.594622 0.000000
outer loop
vertex -12.483806 8.267096 0.000000
vertex -13.429994 9.546463 20.000000
vertex -12.483806 8.267096 20.000000
endloop
endfacet
facet normal 0.862471 0.506106 0.000000
outer loop
vertex -12.483806 8.267096 0.000000
vertex -12.483806 8.267096 20.000000
vertex -11.678469 6.894694 0.000000
endloop
endfacet
facet normal 0.862471 0.506106 0.000000
outer loop
vertex -11.678469 6.894694 0.000000
vertex -12.483806 8.267096 20.000000
vertex -11.678469 6.894694 20.000000
endloop
endfacet
facet normal 0.911232 0.411893 0.000000
outer loop
vertex -11.678469 6.894694 0.000000
vertex -11.678469 6.894694 20.000000
vertex -11.023047 5.444703 0.000000
endloop
endfacet
facet normal 0.911233 0.411892 0.000000
outer loop
vertex -11.023047 5.444703 0.000000
vertex -11.678469 6.894694 20.000000
vertex -11.023047 5.444703 20.000000
endloop
endfacet
facet normal 0.949738 0.313047 0.000000
outer loop
vertex -11.023047 5.444703 0.000000
vertex -11.023047 5.444703 20.000000
vertex -10.524916 3.933439 0.000000
endloop
endfacet
facet normal 0.949739 0.313044 0.000000
outer loop
vertex -10.524916 3.933439 0.000000
vertex -11.023047 5.444703 20.000000
vertex -10.524916 3.933439 20.000000
endloop
endfacet
facet normal 0.977556 0.210675 0.000000
outer loop
vertex -10.524916 3.933439 0.000000
vertex -10.524916 3.933439 20.000000
vertex -10.189681 2.377910 0.000000
endloop
endfacet
facet normal 0.977556 0.210674 0.000000
outer loop
vertex -10.189681 2.377910 0.000000
vertex -10.524916 3.933439 20.000000
vertex -10.189681 2.377910 20.000000
endloop
endfacet
facet normal 0.994373 0.105933 0.000000
outer loop
vertex -10.189681 2.377910 0.000000
vertex -10.189681 2.377910 20.000000
vertex -10.021115 0.795621 0.000000
endloop
endfacet
facet normal 0.994373 0.105934 0.000000
outer loop
vertex -10.021115 0.795621 0.000000
vertex -10.189681 2.377910 20.000000
vertex -10.021115 0.795621 20.000000
endloop
endfacet
facet normal 1.000000 0.000000 0.000000
outer loop
vertex -10.021115 0.795621 0.000000
vertex -10.021115 0.795621 20.000000
vertex -10.021115 -0.795621 0.000000
endloop
endfacet
facet normal 1.000000 0.000000 0.000000
outer loop
vertex -10.021115 -0.795621 0.000000
vertex -10.021115 0.795621 20.000000
vertex -10.021115 -0.795621 20.000000
endloop
endfacet
facet normal 0.994373 -0.105934 0.000000
outer loop
vertex -10.021115 -0.795621 0.000000
vertex -10.021115 -0.795621 20.000000
vertex -10.189681 -2.377910 0.000000
endloop
endfacet
facet normal 0.994373 -0.105933 0.000000
outer loop
vertex -10.189681 -2.377910 0.000000
vertex -10.021115 -0.795621 20.000000
vertex -10.189681 -2.377910 20.000000
endloop
endfacet
facet normal 0.977556 -0.210674 0.000000
outer loop
vertex -10.189681 -2.377910 0.000000
vertex -10.189681 -2.377910 20.000000
vertex -10.524916 -3.933439 0.000000
endloop
endfacet
facet normal 0.977556 -0.210675 0.000000
outer loop
vertex -10.524916 -3.933439 0.000000
vertex -10.189681 -2.377910 20.000000
vertex -10.524916 -3.933439 20.000000
endloop
endfacet
facet normal 0.949739 -0.313044 0.000000
outer loop
vertex -10.524916 -3.933439 0.000000
vertex -10.524916 -3.933439 20.000000
vertex -11.023047 -5.444703 0.000000
endloop
endfacet
facet normal 0.949738 -0.313047 0.000000
outer loop
vertex -11.023047 -5.444703 0.000000
vertex -10.524916 -3.933439 20.000000
vertex -11.023047 -5.444703 20.000000
endloop
endfacet
facet normal 0.911233 -0.411892 0.000000
outer loop
vertex -11.023047 -5.444703 0.000000
vertex -11.023047 -5.444703 20.000000
vertex -11.678469 -6.894694 0.000000
endloop
endfacet
facet normal 0.911232 -0.411893 0.000000
outer loop
vertex -11.678469 -6.894694 0.000000
vertex -11.023047 -5.444703 20.000000
vertex -11.678469 -6.894694 20.000000
endloop
endfacet
facet normal 0.862471 -0.506106 0.000000
outer loop
vertex -11.678469 -6.894694 0.000000
vertex -11.678469 -6.894694 20.000000
vertex -12.483806 -8.267096 0.000000
endloop
endfacet
facet normal 0.862471 -0.506106 0.000000
outer loop
vertex -12.483806 -8.267096 0.000000
vertex -11.678469 -6.894694 20.000000
vertex -12.483806 -8.267096 20.000000
endloop
endfacet
facet normal 0.804005 -0.594622 0.000000
outer loop
vertex -12.483806 -8.267096 0.000000
vertex -12.483806 -8.267096 20.000000
vertex -13.429994 -9.546463 0.000000
endloop
endfacet
facet normal 0.804005 -0.594622 0.000000
outer loop
vertex -13.429994 -9.546463 0.000000
vertex -12.483806 -8.267096 20.000000
vertex -13.429994 -9.546463 20.000000
endloop
endfacet
facet normal 0.736492 -0.676446 0.000000
outer loop
vertex -13.429994 -9.546463 0.000000
vertex -13.429994 -9.546463 20.000000
vertex -14.506386 -10.718398 0.000000
endloop
endfacet
facet normal 0.736490 -0.676449 0.000000
outer loop
vertex -14.506386 -10.718398 0.000000
vertex -13.429994 -9.546463 20.000000
vertex -14.506386 -10.718398 20.000000
endloop
endfacet
facet normal 0.660688 -0.750660 0.000000
outer loop
vertex -14.506386 -10.718398 0.000000
vertex -14.506386 -10.718398 20.000000
vertex -15.700869 -11.769713 0.000000
endloop
endfacet
facet normal 0.660688 -0.750660 0.000000
outer loop
vertex -15.700869 -11.769713 0.000000
vertex -14.506386 -10.718398 20.000000
vertex -15.700869 -11.769713 20.000000
endloop
endfacet
facet normal 0.577451 -0.816425 0.000000
outer loop
vertex -15.700869 -11.769713 0.000000
vertex -15.700869 -11.769713 20.000000
vertex -17.000000 -12.688578 0.000000
endloop
endfacet
facet normal 0.577450 -0.816426 0.000000
outer loop
vertex -17.000000 -12.688578 0.000000
vertex -15.700869 -11.769713 20.000000
vertex -17.000000 -12.688578 20.000000
endloop
endfacet
facet normal -0.577450 0.816426 0.000000
outer loop
vertex -33.000000 12.688578 20.000000
vertex -33.000000 12.688578 0.000000
vertex -34.299129 11.769713 20.000000
endloop
endfacet
facet normal -0.577452 0.816425 0.000000
outer loop
vertex -34.299129 11.769713 20.000000
vertex -33.000000 12.688578 0.000000
vertex -34.299129 11.769713 0.000000
endloop
endfacet
facet normal -0.660690 0.750659 0.000000
outer loop
vertex -34.299129 11.769713 20.000000
vertex -34.299129 11.769713 0.000000
vertex -35.493614 10.718398 20.000000
endloop
endfacet
facet normal -0.660685 0.750664 0.000000
outer loop
vertex -35.493614 10.718398 20.000000
vertex -34.299129 11.769713 0.000000
vertex -35.493614 10.718398 0.000000
endloop
endfacet
facet normal -0.736491 0.676447 0.000000
outer loop
vertex -35.493614 10.718398 20.000000
vertex -35.493614 10.718398 0.000000
vertex -36.570007 9.546463 20.000000
endloop
endfacet
facet normal -0.736491 0.676447 0.000000
outer loop
vertex -36.570007 9.546463 20.000000
vertex -35.493614 10.718398 0.000000
vertex -36.570007 9.546463 0.000000
endloop
endfacet
facet normal -0.804008 0.594619 0.000000
outer loop
vertex -36.570007 9.546463 20.000000
vertex -36.570007 9.546463 0.000000
vertex -37.516193 8.267096 20.000000
endloop
endfacet
facet normal -0.804004 0.594624 0.000000
outer loop
vertex -37.516193 8.267096 20.000000
vertex -36.570007 9.546463 0.000000
vertex -37.516193 8.267096 0.000000
endloop
endfacet
facet normal -0.862472 0.506105 0.000000
outer loop
vertex -37.516193 8.267096 20.000000
vertex -37.516193 8.267096 0.000000
vertex -38.321529 6.894694 20.000000
endloop
endfacet
facet normal -0.862471 0.506107 0.000000
outer loop
vertex -38.321529 6.894694 20.000000
vertex -37.516193 8.267096 0.000000
vertex -38.321529 6.894694 0.000000
endloop
endfacet
facet normal -0.911234 0.411889 0.000000
outer loop
vertex -38.321529 6.894694 20.000000
vertex -38.321529 6.894694 0.000000
vertex -38.976952 5.444703 20.000000
endloop
endfacet
facet normal -0.911230 0.411898 0.000000
outer loop
vertex -38.976952 5.444703 20.000000
vertex -38.321529 6.894694 0.000000
vertex -38.976952 5.444703 0.000000
endloop
endfacet
facet normal -0.949739 0.313043 0.000000
outer loop
vertex -38.976952 5.444703 20.000000
vertex -38.976952 5.444703 0.000000
vertex -39.475082 3.933439 20.000000
endloop
endfacet
facet normal -0.949738 0.313046 0.000000
outer loop
vertex -39.475082 3.933439 20.000000
vertex -38.976952 5.444703 0.000000
vertex -39.475082 3.933439 0.000000
endloop
endfacet
facet normal -0.977556 0.210675 0.000000
outer loop
vertex -39.475082 3.933439 20.000000
vertex -39.475082 3.933439 0.000000
vertex -39.810318 2.377910 20.000000
endloop
endfacet
facet normal -0.977556 0.210675 0.000000
outer loop
vertex -39.810318 2.377910 20.000000
vertex -39.475082 3.933439 0.000000
vertex -39.810318 2.377910 0.000000
endloop
endfacet
facet normal -0.994374 0.105930 0.000000
outer loop
vertex -39.810318 2.377910 20.000000
vertex -39.810318 2.377910 0.000000
vertex -39.978886 0.795621 20.000000
endloop
endfacet
facet normal -0.994373 0.105938 0.000000
outer loop
vertex -39.978886 0.795621 20.000000
vertex -39.810318 2.377910 0.000000
vertex -39.978886 0.795621 0.000000
endloop
endfacet
facet normal -1.000000 0.000000 0.000000
outer loop
vertex -39.978886 0.795621 20.000000
vertex -39.978886 0.795621 0.000000
vertex -39.978886 -0.795621 20.000000
endloop
endfacet
facet normal -1.000000 0.000000 0.000000
outer loop
vertex -39.978886 -0.795621 20.000000
vertex -39.978886 0.795621 0.000000
vertex -39.978886 -0.795621 0.000000
endloop
endfacet
facet normal -0.994373 -0.105938 0.000000
outer loop
vertex -39.978886 -0.795621 20.000000
vertex -39.978886 -0.795621 0.000000
vertex -39.810318 -2.377910 20.000000
endloop
endfacet
facet normal -0.994374 -0.105930 0.000000
outer loop
vertex -39.810318 -2.377910 20.000000
vertex -39.978886 -0.795621 0.000000
vertex -39.810318 -2.377910 0.000000
endloop
endfacet
facet normal -0.977556 -0.210675 0.000000
outer loop
vertex -39.810318 -2.377910 20.000000
vertex -39.810318 -2.377910 0.000000
vertex -39.475082 -3.933439 20.000000
endloop
endfacet
facet normal -0.977556 -0.210675 0.000000
outer loop
vertex -39.475082 -3.933439 20.000000
vertex -39.810318 -2.377910 0.000000
vertex -39.475082 -3.933439 0.000000
endloop
endfacet
facet normal -0.949738 -0.313046 0.000000
outer loop
vertex -39.475082 -3.933439 20.000000
vertex -39.475082 -3.933439 0.000000
vertex -38.976952 -5.444703 20.000000
endloop
endfacet
facet normal -0.949739 -0.313043 0.000000
outer loop
vertex -38.976952 -5.444703 20.000000
vertex -39.475082 -3.933439 0.000000
vertex -38.976952 -5.444703 0.000000
endloop
endfacet
facet normal -0.911230 -0.411898 0.000000
outer loop
vertex -38.976952 -5.444703 20.000000
vertex -38.976952 -5.444703 0.000000
vertex -38.321529 -6.894694 20.000000
endloop
endfacet
facet normal -0.911234 -0.411889 0.000000
outer loop
vertex -38.321529 -6.894694 20.000000
vertex -38.976952 -5.444703 0.000000
vertex -38.321529 -6.894694 0.000000
endloop
endfacet
facet normal -0.862471 -0.506107 0.000000
outer loop
vertex -38.321529 -6.894694 20.000000
vertex -38.321529 -6.894694 0.000000
vertex -37.516193 -8.267096 20.000000
endloop
endfacet
facet normal -0.862472 -0.506105 0.000000
outer loop
vertex -37.516193 -8.267096 20.000000
vertex -38.321529 -6.894694 0.000000
vertex -37.516193 -8.267096 0.000000
endloop
endfacet
facet normal -0.804004 -0.594624 0.000000
outer loop
vertex -37.516193 -8.267096 20.000000
vertex -37.516193 -8.267096 0.000000
vertex -36.570007 -9.546463 20.000000
endloop
endfacet
facet normal -0.804008 -0.594619 0.000000
outer loop
vertex -36.570007 -9.546463 20.000000
vertex -37.516193 -8.267096 0.000000
vertex -36.570007 -9.546463 0.000000
endloop
endfacet
facet normal -0.736491 -0.676447 0.000000
outer loop
vertex -36.570007 -9.546463 20.000000
vertex -36.570007 -9.546463 0.000000
vertex -35.493614 -10.718398 20.000000
endloop
endfacet
facet normal -0.736491 -0.676447 0.000000
outer loop
vertex -35.493614 -10.718398 20.000000
vertex -36.570007 -9.546463 0.000000
vertex -35.493614 -10.718398 0.000000
endloop
endfacet
facet normal -0.660685 -0.750664 0.000000
outer loop
vertex -35.493614 -10.718398 20.000000
vertex -35.493614 -10.718398 0.000000
vertex -34.299129 -11.769713 20.000000
endloop
endfacet
facet normal -0.660690 -0.750659 0.000000
outer loop
vertex -34.299129 -11.769713 20.000000
vertex -35.493614 -10.718398 0.000000
vertex -34.299129 -11.769713 0.000000
endloop
endfacet
facet normal -0.577452 -0.816425 0.000000
outer loop
vertex -34.299129 -11.769713 20.000000
vertex -34.299129 -11.769713 0.000000
vertex -33.000000 -12.688578 20.000000
endloop
endfacet
facet normal -0.577450 -0.816426 0.000000
outer loop
vertex -33.000000 -12.688578 20.000000
vertex -34.299129 -11.769713 0.000000
vertex -33.000000 -12.688578 0.000000
endloop
endfacet
facet normal 0.995165 0.000000 0.098215
outer loop
vertex -27.991993 -13.523094 9.412254
vertex -28.049999 -13.509996 10.000000
vertex -28.049999 -15.000000 10.000000
endloop
endfacet
facet normal 0.995165 0.000000 -0.098215
outer loop
vertex -28.049999 -15.000000 10.000000
vertex -28.049999 -13.509996 10.000000
vertex -27.991993 -13.523094 10.587746
endloop
endfacet
facet normal 0.992669 0.008978 -0.120531
outer loop
vertex -28.049999 -15.000000 10.000000
vertex -27.991993 -13.523094 10.587746
vertex -27.961372 -15.000000 10.729913
endloop
endfacet
facet normal 0.957418 -0.007930 -0.288597
outer loop
vertex -27.961372 -15.000000 10.729913
vertex -27.991993 -13.523094 10.587746
vertex -27.817127 -13.560468 11.168886
endloop
endfacet
facet normal 0.934919 0.014442 -0.354567
outer loop
vertex -27.961372 -15.000000 10.729913
vertex -27.817127 -13.560468 11.168886
vertex -27.700642 -15.000000 11.417406
endloop
endfacet
facet normal 0.879850 -0.010826 -0.475127
outer loop
vertex -27.700642 -15.000000 11.417406
vertex -27.817127 -13.560468 11.168886
vertex -27.529785 -13.616928 11.702280
endloop
endfacet
facet normal 0.822886 0.015340 -0.567999
outer loop
vertex -27.700642 -15.000000 11.417406
vertex -27.529785 -13.616928 11.702280
vertex -27.282957 -15.000000 12.022524
endloop
endfacet
facet normal 0.772177 -0.009304 -0.635339
outer loop
vertex -27.282957 -15.000000 12.022524
vertex -27.529785 -13.616928 11.702280
vertex -27.156742 -13.681044 12.156609
endloop
endfacet
facet normal 0.663071 0.012633 -0.748450
outer loop
vertex -27.282957 -15.000000 12.022524
vertex -27.156742 -13.681044 12.156609
vertex -26.732597 -15.000000 12.510100
endloop
endfacet
facet normal 0.634355 -0.003185 -0.773035
outer loop
vertex -26.732597 -15.000000 12.510100
vertex -27.156742 -13.681044 12.156609
vertex -26.702417 -13.744848 12.529693
endloop
endfacet
facet normal 0.474492 0.002331 -0.880257
outer loop
vertex -26.732597 -15.000000 12.510100
vertex -26.702417 -13.744848 12.529693
vertex -26.168976 -13.800579 12.817090
endloop
endfacet
facet normal 0.464708 0.008253 -0.885425
outer loop
vertex -26.732597 -15.000000 12.510100
vertex -26.168976 -13.800579 12.817090
vertex -26.081545 -15.000000 12.851800
endloop
endfacet
facet normal 0.287762 -0.006738 -0.957678
outer loop
vertex -26.081545 -15.000000 12.851800
vertex -26.168976 -13.800579 12.817090
vertex -25.587774 -13.837219 12.991986
endloop
endfacet
facet normal 0.239287 0.015432 -0.970826
outer loop
vertex -26.081545 -15.000000 12.851800
vertex -25.587774 -13.837219 12.991986
vertex -25.367638 -15.000000 13.027762
endloop
endfacet
facet normal 0.097956 -0.012073 -0.995117
outer loop
vertex -25.367638 -15.000000 13.027762
vertex -25.587774 -13.837219 12.991986
vertex -25.000000 -13.850000 13.050000
endloop
endfacet
facet normal 0.000000 0.019334 -0.999813
outer loop
vertex -25.367638 -15.000000 13.027762
vertex -25.000000 -13.850000 13.050000
vertex -24.632362 -15.000000 13.027762
endloop
endfacet
facet normal -0.097956 -0.012073 -0.995117
outer loop
vertex -24.632362 -15.000000 13.027762
vertex -25.000000 -13.850000 13.050000
vertex -24.412226 -13.837219 12.991986
endloop
endfacet
facet normal -0.239287 0.015432 -0.970826
outer loop
vertex -24.632362 -15.000000 13.027762
vertex -24.412226 -13.837219 12.991986
vertex -23.918455 -15.000000 12.851800
endloop
endfacet
facet normal -0.287762 -0.006738 -0.957678
outer loop
vertex -23.918455 -15.000000 12.851800
vertex -24.412226 -13.837219 12.991986
vertex -23.831024 -13.800579 12.817090
endloop
endfacet
facet normal -0.464708 0.008253 -0.885425
outer loop
vertex -23.918455 -15.000000 12.851800
vertex -23.831024 -13.800579 12.817090
vertex -23.267403 -15.000000 12.510100
endloop
endfacet
facet normal -0.474492 0.002331 -0.880257
outer loop
vertex -23.267403 -15.000000 12.510100
vertex -23.831024 -13.800579 12.817090
vertex -23.297583 -13.744848 12.529693
endloop
endfacet
facet normal -0.634355 -0.003185 -0.773035
outer loop
vertex -23.267403 -15.000000 12.510100
vertex -23.297583 -13.744848 12.529693
vertex -22.843258 -13.681044 12.156609
endloop
endfacet
facet normal -0.663071 0.012634 -0.748450
outer loop
vertex -23.267403 -15.000000 12.510100
vertex -22.843258 -13.681044 12.156609
vertex -22.717043 -15.000000 12.022524
endloop
endfacet
facet normal -0.772177 -0.009304 -0.635339
outer loop
vertex -22.717043 -15.000000 12.022524
vertex -22.843258 -13.681044 12.156609
vertex -22.470215 -13.616928 11.702280
endloop
endfacet
facet normal -0.822886 0.015339 -0.568000
outer loop
vertex -22.717043 -15.000000 12.022524
vertex -22.470215 -13.616928 11.702280
vertex -22.299358 -15.000000 11.417406
endloop
endfacet
facet normal -0.879850 -0.010826 -0.475127
outer loop
vertex -22.299358 -15.000000 11.417406
vertex -22.470215 -13.616928 11.702280
vertex -22.182873 -13.560468 11.168886
endloop
endfacet
facet normal -0.934919 0.014440 -0.354566
outer loop
vertex -22.299358 -15.000000 11.417406
vertex -22.182873 -13.560468 11.168886
vertex -22.038628 -15.000000 10.729913
endloop
endfacet
facet normal -0.957418 -0.007930 -0.288597
outer loop
vertex -22.038628 -15.000000 10.729913
vertex -22.182873 -13.560468 11.168886
vertex -22.008007 -13.523094 10.587746
endloop
endfacet
facet normal -0.992669 0.008978 -0.120531
outer loop
vertex -22.038628 -15.000000 10.729913
vertex -22.008007 -13.523094 10.587746
vertex -21.950001 -15.000000 10.000000
endloop
endfacet
facet normal -0.995165 0.000000 -0.098215
outer loop
vertex -21.950001 -15.000000 10.000000
vertex -22.008007 -13.523094 10.587746
vertex -21.950001 -13.509996 10.000000
endloop
endfacet
facet normal -0.995165 0.000000 0.098215
outer loop
vertex -21.950001 -15.000000 10.000000
vertex -21.950001 -13.509996 10.000000
vertex -22.008007 -13.523094 9.412254
endloop
endfacet
facet normal -0.992669 0.008978 0.120531
outer loop
vertex -21.950001 -15.000000 10.000000
vertex -22.008007 -13.523094 9.412254
vertex -22.038628 -15.000000 9.270087
endloop
endfacet
facet normal -0.957418 -0.007930 0.288597
outer loop
vertex -22.038628 -15.000000 9.270087
vertex -22.008007 -13.523094 9.412254
vertex -22.182873 -13.560468 8.831114
endloop
endfacet
facet normal -0.934919 0.014440 0.354567
outer loop
vertex -22.038628 -15.000000 9.270087
vertex -22.182873 -13.560468 8.831114
vertex -22.299358 -15.000000 8.582594
endloop
endfacet
facet normal -0.879851 -0.010826 0.475126
outer loop
vertex -22.299358 -15.000000 8.582594
vertex -22.182873 -13.560468 8.831114
vertex -22.470215 -13.616928 8.297720
endloop
endfacet
facet normal -0.822886 0.015339 0.568000
outer loop
vertex -22.299358 -15.000000 8.582594
vertex -22.470215 -13.616928 8.297720
vertex -22.717043 -15.000000 7.977476
endloop
endfacet
facet normal -0.772177 -0.009304 0.635339
outer loop
vertex -22.717043 -15.000000 7.977476
vertex -22.470215 -13.616928 8.297720
vertex -22.843258 -13.681044 7.843391
endloop
endfacet
facet normal -0.663072 0.012635 0.748449
outer loop
vertex -22.717043 -15.000000 7.977476
vertex -22.843258 -13.681044 7.843391
vertex -23.267403 -15.000000 7.489899
endloop
endfacet
facet normal -0.634354 -0.003188 0.773036
outer loop
vertex -23.267403 -15.000000 7.489899
vertex -22.843258 -13.681044 7.843391
vertex -23.297583 -13.744848 7.470308
endloop
endfacet
facet normal -0.474492 0.002330 0.880257
outer loop
vertex -23.267403 -15.000000 7.489899
vertex -23.297583 -13.744848 7.470308
vertex -23.831024 -13.800579 7.182910
endloop
endfacet
facet normal -0.464708 0.008252 0.885425
outer loop
vertex -23.267403 -15.000000 7.489899
vertex -23.831024 -13.800579 7.182910
vertex -23.918455 -15.000000 7.148201
endloop
endfacet
facet normal -0.287762 -0.006738 0.957678
outer loop
vertex -23.918455 -15.000000 7.148201
vertex -23.831024 -13.800579 7.182910
vertex -24.412226 -13.837219 7.008014
endloop
endfacet
facet normal -0.239287 0.015432 0.970826
outer loop
vertex -23.918455 -15.000000 7.148201
vertex -24.412226 -13.837219 7.008014
vertex -24.632362 -15.000000 6.972238
endloop
endfacet
facet normal -0.097956 -0.012072 0.995117
outer loop
vertex -24.632362 -15.000000 6.972238
vertex -24.412226 -13.837219 7.008014
vertex -25.000000 -13.850000 6.950000
endloop
endfacet
facet normal 0.000000 0.019334 0.999813
outer loop
vertex -24.632362 -15.000000 6.972238
vertex -25.000000 -13.850000 6.950000
vertex -25.367638 -15.000000 6.972238
endloop
endfacet
facet normal 0.097956 -0.012072 0.995117
outer loop
vertex -25.367638 -15.000000 6.972238
vertex -25.000000 -13.850000 6.950000
vertex -25.587774 -13.837219 7.008014
endloop
endfacet
facet normal 0.239287 0.015432 0.970826
outer loop
vertex -25.367638 -15.000000 6.972238
vertex -25.587774 -13.837219 7.008014
vertex -26.081545 -15.000000 7.148201
endloop
endfacet
facet normal 0.287762 -0.006738 0.957678
outer loop
vertex -26.081545 -15.000000 7.148201
vertex -25.587774 -13.837219 7.008014
vertex -26.168976 -13.800579 7.182910
endloop
endfacet
facet normal 0.464708 0.008253 0.885425
outer loop
vertex -26.081545 -15.000000 7.148201
vertex -26.168976 -13.800579 7.182910
vertex -26.732597 -15.000000 7.489899
endloop
endfacet
facet normal 0.474492 0.002330 0.880257
outer loop
vertex -26.732597 -15.000000 7.489899
vertex -26.168976 -13.800579 7.182910
vertex -26.702417 -13.744848 7.470308
endloop
endfacet
facet normal 0.634354 -0.003188 0.773036
outer loop
vertex -26.732597 -15.000000 7.489899
vertex -26.702417 -13.744848 7.470308
vertex -27.156742 -13.681044 7.843391
endloop
endfacet
facet normal 0.663072 0.012636 0.748449
outer loop
vertex -26.732597 -15.000000 7.489899
vertex -27.156742 -13.681044 7.843391
vertex -27.282957 -15.000000 7.977476
endloop
endfacet
facet normal 0.772177 -0.009304 0.635339
outer loop
vertex -27.282957 -15.000000 7.977476
vertex -27.156742 -13.681044 7.843391
vertex -27.529785 -13.616928 8.297720
endloop
endfacet
facet normal 0.822886 0.015340 0.567999
outer loop
vertex -27.282957 -15.000000 7.977476
vertex -27.529785 -13.616928 8.297720
vertex -27.700642 -15.000000 8.582594
endloop
endfacet
facet normal 0.879851 -0.010826 0.475126
outer loop
vertex -27.700642 -15.000000 8.582594
vertex -27.529785 -13.616928 8.297720
vertex -27.817127 -13.560468 8.831114
endloop
endfacet
facet normal 0.934919 0.014442 0.354567
outer loop
vertex -27.700642 -15.000000 8.582594
vertex -27.817127 -13.560468 8.831114
vertex -27.961372 -15.000000 9.270087
endloop
endfacet
facet normal 0.957418 -0.007930 0.288597
outer loop
vertex -27.961372 -15.000000 9.270087
vertex -27.817127 -13.560468 8.831114
vertex -27.991993 -13.523094 9.412254
endloop
endfacet
facet normal 0.992669 0.008978 0.120531
outer loop
vertex -27.961372 -15.000000 9.270087
vertex -27.991993 -13.523094 9.412254
vertex -28.049999 -15.000000 10.000000
endloop
endfacet
facet normal -1.000000 0.000000 0.000000
outer loop
vertex -33.000000 -12.688578 0.000000
vertex -33.000000 -15.000000 0.000000
vertex -33.000000 -12.688578 20.000000
endloop
endfacet
facet normal -1.000000 0.000000 0.000000
outer loop
vertex -33.000000 -12.688578 20.000000
vertex -33.000000 -15.000000 0.000000
vertex -33.000000 -15.000000 20.000000
endloop
endfacet
facet normal 1.000000 0.000000 0.000000
outer loop
vertex -17.000000 -15.000000 0.000000
vertex -17.000000 -12.688578 0.000000
vertex -17.000000 -15.000000 20.000000
endloop
endfacet
facet normal 1.000000 0.000000 0.000000
outer loop
vertex -17.000000 -15.000000 20.000000
vertex -17.000000 -12.688578 0.000000
vertex -17.000000 -12.688578 20.000000
endloop
endfacet
facet normal 0.000000 -1.000000 0.000000
outer loop
vertex -27.961372 -15.000000 10.729913
vertex -33.000000 -15.000000 20.000000
vertex -28.049999 -15.000000 10.000000
endloop
endfacet
facet normal 0.000000 -1.000000 0.000000
outer loop
vertex -28.049999 -15.000000 10.000000
vertex -33.000000 -15.000000 20.000000
vertex -33.000000 -15.000000 0.000000
endloop
endfacet
facet normal 0.000000 -1.000000 -0.000003
outer loop
vertex -28.049999 -15.000000 10.000000
vertex -33.000000 -15.000000 0.000000
vertex -27.961372 -15.000000 9.270087
endloop
endfacet
facet normal 0.000000 -1.000000 0.000000
outer loop
vertex -27.961372 -15.000000 9.270087
vertex -33.000000 -15.000000 0.000000
vertex -27.700642 -15.000000 8.582594
endloop
endfacet
facet normal 0.000000 -1.000000 0.000002
outer loop
vertex -27.700642 -15.000000 8.582594
vertex -33.000000 -15.000000 0.000000
vertex -27.282957 -15.000000 7.977476
endloop
endfacet
facet normal 0.000000 -1.000000 0.000000
outer loop
vertex -27.282957 -15.000000 7.977476
vertex -33.000000 -15.000000 0.000000
vertex -26.732597 -15.000000 7.489899
endloop
endfacet
facet normal 0.000000 -1.000000 0.000000
outer loop
vertex -26.732597 -15.000000 7.489899
vertex -33.000000 -15.000000 0.000000
vertex -26.081545 -15.000000 7.148201
endloop
endfacet
facet normal 0.000000 -1.000000 0.000000
outer loop
vertex -26.081545 -15.000000 7.148201
vertex -33.000000 -15.000000 0.000000
vertex -25.367638 -15.000000 6.972238
endloop
endfacet
facet normal 0.000000 -1.000000 0.000000
outer loop
vertex -25.367638 -15.000000 6.972238
vertex -33.000000 -15.000000 0.000000
vertex -17.000000 -15.000000 0.000000
endloop
endfacet
facet normal 0.000000 -1.000000 0.000000
outer loop
vertex -25.367638 -15.000000 6.972238
vertex -17.000000 -15.000000 0.000000
vertex -24.632362 -15.000000 6.972238
endloop
endfacet
facet normal 0.000000 -1.000000 0.000000
outer loop
vertex -24.632362 -15.000000 6.972238
vertex -17.000000 -15.000000 0.000000
vertex -23.918455 -15.000000 7.148201
endloop
endfacet
facet normal 0.000000 -1.000000 0.000000
outer loop
vertex -23.918455 -15.000000 7.148201
vertex -17.000000 -15.000000 0.000000
vertex -23.267403 -15.000000 7.489899
endloop
endfacet
facet normal 0.000000 -1.000000 0.000000
outer loop
vertex -23.267403 -15.000000 7.489899
vertex -17.000000 -15.000000 0.000000
vertex -22.717043 -15.000000 7.977476
endloop
endfacet
facet normal 0.000000 -1.000000 0.000002
outer loop
vertex -22.717043 -15.000000 7.977476
vertex -17.000000 -15.000000 0.000000
vertex -22.299358 -15.000000 8.582594
endloop
endfacet
facet normal 0.000000 -1.000000 -0.000003
outer loop
vertex -22.299358 -15.000000 8.582594
vertex -17.000000 -15.000000 0.000000
vertex -22.038628 -15.000000 9.270087
endloop
endfacet
facet normal 0.000000 -1.000000 0.000000
outer loop
vertex -22.038628 -15.000000 9.270087
vertex -17.000000 -15.000000 0.000000
vertex -21.950001 -15.000000 10.000000
endloop
endfacet
facet normal 0.000000 -1.000000 0.000000
outer loop
vertex -21.950001 -15.000000 10.000000
vertex -17.000000 -15.000000 0.000000
vertex -17.000000 -15.000000 20.000000
endloop
endfacet
facet normal 0.000000 -1.000000 0.000003
outer loop
vertex -21.950001 -15.000000 10.000000
vertex -17.000000 -15.000000 20.000000
vertex -22.038628 -15.000000 10.729913
endloop
endfacet
facet normal 0.000000 -1.000000 0.000000
outer loop
vertex -22.038628 -15.000000 10.729913
vertex -17.000000 -15.000000 20.000000
vertex -22.299358 -15.000000 11.417406
endloop
endfacet
facet normal 0.000000 -1.000000 -0.000002
outer loop
vertex -22.299358 -15.000000 11.417406
vertex -17.000000 -15.000000 20.000000
vertex -22.717043 -15.000000 12.022524
endloop
endfacet
facet normal 0.000000 -1.000000 0.000000
outer loop
vertex -22.717043 -15.000000 12.022524
vertex -17.000000 -15.000000 20.000000
vertex -23.267403 -15.000000 12.510100
endloop
endfacet
facet normal 0.000000 -1.000000 0.000000
outer loop
vertex -23.267403 -15.000000 12.510100
vertex -17.000000 -15.000000 20.000000
vertex -23.918455 -15.000000 12.851800
endloop
endfacet
facet normal 0.000000 -1.000000 0.000000
outer loop
vertex -23.918455 -15.000000 12.851800
vertex -17.000000 -15.000000 20.000000
vertex -24.632362 -15.000000 13.027762
endloop
endfacet
facet normal 0.000000 -1.000000 0.000000
outer loop
vertex -24.632362 -15.000000 13.027762
vertex -17.000000 -15.000000 20.000000
vertex -33.000000 -15.000000 20.000000
endloop
endfacet
facet normal 0.000000 -1.000000 0.000000
outer loop
vertex -24.632362 -15.000000 13.027762
vertex -33.000000 -15.000000 20.000000
vertex -25.367638 -15.000000 13.027762
endloop
endfacet
facet normal 0.000000 -1.000000 0.000000
outer loop
vertex -25.367638 -15.000000 13.027762
vertex -33.000000 -15.000000 20.000000
vertex -26.081545 -15.000000 12.851800
endloop
endfacet
facet normal 0.000000 -1.000000 0.000000
outer loop
vertex -26.081545 -15.000000 12.851800
vertex -33.000000 -15.000000 20.000000
vertex -26.732597 -15.000000 12.510100
endloop
endfacet
facet normal 0.000000 -1.000000 0.000000
outer loop
vertex -26.732597 -15.000000 12.510100
vertex -33.000000 -15.000000 20.000000
vertex -27.282957 -15.000000 12.022524
endloop
endfacet
facet normal 0.000000 -1.000000 -0.000002
outer loop
vertex -27.282957 -15.000000 12.022524
vertex -33.000000 -15.000000 20.000000
vertex -27.700642 -15.000000 11.417406
endloop
endfacet
facet normal 0.000000 -1.000000 0.000003
outer loop
vertex -27.700642 -15.000000 11.417406
vertex -33.000000 -15.000000 20.000000
vertex -27.961372 -15.000000 10.729913
endloop
endfacet
endsolid Staff and Walking Stick Pica Tinny v1.001
